<?xml version="1.0" encoding="UTF-8" standalone="no"?>
<svg
   fill="currentColor"
   viewBox="0 0 100 26.95"
   version="1.1"
   id="svg2"
   sodipodi:docname="logo3.svg"
   inkscape:version="1.4 (e7c3feb100, 2024-10-09)"
   xmlns:inkscape="http://www.inkscape.org/namespaces/inkscape"
   xmlns:sodipodi="http://sodipodi.sourceforge.net/DTD/sodipodi-0.dtd"
   xmlns="http://www.w3.org/2000/svg"
   xmlns:svg="http://www.w3.org/2000/svg">
  <defs
     id="defs2">
    <inkscape:path-effect
       effect="powerstroke"
       message=""
       id="path-effect2"
       is_visible="true"
       lpeversion="1.3"
       scale_width="0.2"
       interpolator_type="CentripetalCatmullRom"
       interpolator_beta="0.2"
       start_linecap_type="zerowidth"
       end_linecap_type="zerowidth"
       offset_points="16,0.5 | 39.5,0.5 | 53,0.5 | 65.5,0.5 | 76,0.5 | 84,0.5 | 93,0.5 | 100,0.5 | 104,0.5 | 108,0.5"
       linejoin_type="round"
       miter_limit="4"
       not_jump="false"
       sort_points="true" />
    <inkscape:path-effect
       effect="fill_between_many"
       method="bsplinespiro"
       autoreverse="false"
       close="false"
       join="false"
       linkedpaths="#path2,0,1"
       id="path-effect3" />
  </defs>
  <sodipodi:namedview
     id="namedview2"
     pagecolor="#ffffff"
     bordercolor="#000000"
     borderopacity="0.25"
     inkscape:showpageshadow="2"
     inkscape:pageopacity="0.0"
     inkscape:pagecheckerboard="0"
     inkscape:deskcolor="#d1d1d1"
     inkscape:zoom="4.92"
     inkscape:cx="50"
     inkscape:cy="13.414634"
     inkscape:window-width="1506"
     inkscape:window-height="873"
     inkscape:window-x="0"
     inkscape:window-y="0"
     inkscape:window-maximized="1"
     inkscape:current-layer="svg2" />
  <path
     d="M14.367 0v.383h4.643V13.63h.424V.383h4.642V0h-9.709zm15.951.002v13.629h.424V6.78h9.172v6.85h.426V.002h-.426v6.396h-9.172V.002h-.424zm32.995 0v13.629h1.91V7.559h2.039l3.467 6.072h2.308L69.23 7.375c.977-.17 1.77-.553 2.392-1.176.61-.609.92-1.415.92-2.42 0-.694-.129-1.287-.383-1.77A3.19 3.19 0 0 0 71.111.85 4.788 4.788 0 0 0 69.553.2a8.825 8.825 0 0 0-1.867-.197h-4.374zm15.681 0v13.629h1.912L80.904.002h-1.91zm13.418 0-5.916 13.629h2.123l1.373-3.354h6.469l1.387 3.354H100L94.14.002h-1.728zM.057.043v2.83l1.84.002V1.742h6.935V.043H.057zm47.841 0v2.973h1.84V1.6h6.936V.043h-8.776zM65.195 1.6h2.334a6.265 6.265 0 0 1 1.176.1 2.846 2.846 0 0 1 .977.353 1.994 1.994 0 0 1 .666.666c.169.283.254.623.254 1.033 0 .411-.084.75-.254 1.031a1.837 1.837 0 0 1-.68.682c-.282.184-.623.31-1.006.38a6.75 6.75 0 0 1-1.244.114h-2.195l-.028.002V1.6zm28.026.607 2.547 6.398h-5.11l2.563-6.398zM.057 4.572v9.06h9.056v-1.7H1.896v-4.53h6.51V5.703h-6.51v-1.13H.056zm47.841 0v9.06h9.059v-1.7l-7.219.002V7.402h6.51V5.705h-6.51V4.572h-1.84zM.057 15.26v1.654h9.045V15.26H.057z"
     id="path1" />
  <path
     inkscape:original-d="M 0,0"
     inkscape:path-effect="#path-effect3"
     d="m 32.229,20.75 a 3.236,3.236 0 0 0 -1.245,0.229 2.995,2.995 0 0 0 -0.963,0.634 c -0.27,0.27 -0.466,0.596 -0.623,0.977 a 3.226,3.226 0 0 0 -0.226,1.232 3.526,3.526 0 0 0 0.226,1.233 2.871,2.871 0 0 0 0.623,0.99 2.783,2.783 0 0 0 0.977,0.666 c 0.382,0.155 0.806,0.238 1.273,0.238 a 4.58,4.58 0 0 0 1.233,-0.154 c 0.354,-0.113 0.65,-0.227 0.89,-0.367 v -2.563 h -1.712 v 0.155 h 1.53 v 2.308 a 4.75,4.75 0 0 1 -0.85,0.31 4.043,4.043 0 0 1 -1.063,0.13 3.1,3.1 0 0 1 -1.23,-0.229 2.664,2.664 0 0 1 -0.92,-0.637 2.532,2.532 0 0 1 -0.58,-0.933 3.456,3.456 0 0 1 -0.2,-1.147 3.033,3.033 0 0 1 0.2,-1.133 2.876,2.876 0 0 1 0.58,-0.933 2.72,2.72 0 0 1 0.906,-0.623 2.902,2.902 0 0 1 1.175,-0.227 3.052,3.052 0 0 1 0.99,0.17 2.302,2.302 0 0 1 0.468,0.197 2.64,2.64 0 0 1 0.38,0.286 l 0.127,-0.127 A 3.088,3.088 0 0 0 33.318,20.936 2.97,2.97 0 0 0 32.228,20.75 Z M 0,20.904 v 5.877 H 0.184 V 21.12 h 0.029 l 2.59,5.662 H 2.957 L 5.549,21.12 h 0.027 v 5.662 L 5.746,26.78 V 20.905 H 5.422 L 2.873,26.51 0.326,20.904 Z m 81.586,0 v 5.877 h 0.184 v -5.635 h 0.029 l 4.203,5.635 0.27,-0.002 v -5.875 h -0.186 v 5.635 h -0.027 l -4.22,-5.635 z m 14.72,0 v 5.877 l 3.553,-0.002 v -0.168 h -3.37 v -2.79 h 3.044 v -0.17 h -3.045 v -2.577 h 3.242 v -0.17 h -3.423 z m -78.685,0.002 -2.547,5.875 h 0.197 l 0.723,-1.683 h 3.412 l 0.694,1.683 h 0.199 l -2.451,-5.875 z m 28.535,0 -2.547,5.875 h 0.2 l 0.72,-1.683 h 3.412 l 0.694,1.683 h 0.197 l -2.45,-5.875 z m 11.664,0 v 0.17 h 3.75 l -3.863,5.479 v 0.226 h 4.133 v -0.17 h -3.95 l 3.837,-5.465 v -0.24 z m 13.532,0 v 5.875 h 0.183 v -5.875 z m -53.631,0.13 1.613,3.905 h -3.283 l 1.67,-3.906 z m 28.535,0 1.613,3.905 h -3.283 l 1.67,-3.906 z"
     id="path3"
     style="fill:#000000" />
  <path
     d="m 32.230496,20.650011 c -0.36666,-0.0055 -0.811674,0.04831 -1.283473,0.236077 -0.339301,0.138887 -0.685775,0.351076 -0.99606,0.655534 -0.137357,0.13735 -0.259209,0.291156 -0.368503,0.465037 -0.103459,0.164601 -0.194568,0.3454 -0.276918,0.545242 -0.154112,0.389435 -0.23983,0.820084 -0.233532,1.271494 0.0011,0.419601 0.07551,0.849997 0.2324,1.266831 0.139201,0.373748 0.355755,0.724405 0.644579,1.024159 0.279167,0.294665 0.622869,0.532167 1.011524,0.689323 0.390427,0.158419 0.8267,0.245292 1.310487,0.245292 0.421442,0.005 0.845408,-0.04727 1.258739,-0.157369 0.359875,-0.114751 0.664646,-0.231419 0.914648,-0.377253 a 0.10000448,0.09999968 74.872474 0 0 0.04961,-0.08638 c 0,-0.855152 0,-1.710538 0,-2.562996 A 0.10000005,0.10000235 0 0 0 34.394,23.765 c -0.573368,0 -1.144754,0 -1.712,0 a 0.10000001,0.1 0 0 0 -0.1,0.1 c 0,0.05212 0,0.103855 0,0.155 a 0.09999999,0.1 0 0 0 0.1,0.1 c 0.482575,0 0.959828,0 1.43,0 0,0.661844 0,1.411093 0,2.144436 -0.255891,0.117846 -0.515797,0.209356 -0.77516,0.276781 -0.32923,0.08565 -0.677677,0.130789 -1.036726,0.126789 -0.40255,0.0077 -0.80825,-0.06453 -1.193348,-0.221601 C 30.776977,26.309296 30.473892,26.1021 30.221923,25.833573 29.973808,25.580143 29.782364,25.274997 29.663358,24.935886 29.536642,24.5798 29.470289,24.2033 29.468999,23.821662 c -0.006,-0.374883 0.0594,-0.746827 0.193394,-1.096915 0.12734,-0.334233 0.317668,-0.639842 0.559888,-0.900703 0.247366,-0.257705 0.544828,-0.461194 0.871555,-0.598893 0.362476,-0.152621 0.749192,-0.225654 1.13448,-0.219165 0.33216,0.0016 0.655491,0.05874 0.958772,0.164443 0.163441,0.04852 0.313321,0.112415 0.452187,0.189897 0.129568,0.08046 0.251514,0.173207 0.361638,0.272831 a 0.10000009,0.09999997 43.567121 0 0 0.137798,-0.0034 c 0.04392,-0.04392 0.08635,-0.08635 0.127,-0.127 a 0.1,0.1 41.939759 0 0 -0.0079,-0.148557 c -0.286611,-0.231102 -0.596047,-0.398844 -0.9054,-0.512062 -0.39006,-0.145159 -0.775663,-0.198467 -1.126192,-0.192075 z M 32.229,20.65 c -2.78e-4,0 -6.15e-4,0 -10e-4,0 l 0.0018,0.199983 c 0.327693,-0.006 0.688176,0.04386 1.0533,0.179738 0.259012,0.0948 0.517578,0.230025 0.76099,0.411745 0.06029,-0.06029 0.03997,-0.03997 0.01926,-0.01926 -0.09941,-0.08384 -0.207019,-0.162481 -0.322684,-0.234192 -0.155446,-0.08685 -0.318939,-0.156554 -0.492298,-0.207893 -0.319311,-0.111412 -0.664548,-0.172438 -1.017921,-0.174115 -0.41158,-0.0069 -0.825898,0.07131 -1.214279,0.234835 -0.351701,0.148225 -0.671869,0.367247 -0.93934,0.645917 -0.260806,0.280858 -0.464846,0.608485 -0.601303,0.966644 -0.143077,0.373819 -0.212965,0.771125 -0.206539,1.170212 0.0014,0.40311 0.07166,0.802047 0.205775,1.178917 0.128647,0.366586 0.335833,0.696826 0.602761,0.969436 0.270151,0.287937 0.596877,0.511295 0.953062,0.659376 0.411395,0.167793 0.844141,0.244793 1.270301,0.236644 0.374235,0.0042 0.740357,-0.04321 1.086266,-0.133204 0.290592,-0.07554 0.581855,-0.180082 0.867877,-0.316521 A 0.10000028,0.09999988 77.248923 0 0 34.312,26.328 c 0,-0.753595 0,-1.52413 0,-2.308 a 0.09999993,0.1000001 0 0 0 -0.1,-0.1 c -0.470024,0 -0.94728,0 -1.43,0 0,0.08174 0,0.0634 0,0.045 0.434262,0 0.972196,0 1.512,0 0,0.733098 0,1.56899 0,2.404727 -0.222095,0.122232 -0.494035,0.225827 -0.820409,0.330009 -0.390998,0.104028 -0.796846,0.154052 -1.201408,0.149271 -0.460513,-7e-6 -0.871125,-0.08238 -1.236584,-0.230669 -0.361805,-0.146299 -0.681663,-0.367325 -0.942006,-0.642115 -0.269962,-0.280184 -0.471938,-0.607236 -0.601882,-0.956126 -0.148358,-0.394166 -0.218688,-0.800823 -0.219711,-1.198354 -0.0059,-0.425404 0.07463,-0.830157 0.218985,-1.194948 0.07822,-0.189799 0.164326,-0.360211 0.260804,-0.513704 0.101813,-0.16198 0.214444,-0.303903 0.339922,-0.42938 0.289561,-0.284118 0.613646,-0.482595 0.930173,-0.612165 0.44261,-0.176145 0.86094,-0.226714 1.20562,-0.221557 z M -0.1,20.904 c 0,1.445866 0,3.460875 0,5.877 a 0.1,0.1 0 0 0 0.1,0.1 c 0.05530573,0 0.11732437,0 0.184,0 a 0.1,0.1 0 0 0 0.1,-0.1 c 0,-1.791742 0,-3.692792 0,-5.661 l -0.1,0.1 c 0.009425,0 0.0191503,0 0.029,0 l -0.0909374,-0.0584 c 0.85764979,1.874909 1.72584847,3.772878 2.58999997,5.662 A 0.1,0.1 77.70948 0 0 2.803,26.882 c 0.051876,0 0.1035074,0 0.154,0 a 0.0999999,0.10000142 12.299069 0 0 0.090926,-0.05838 c 0.8908246,-1.94593 1.7605956,-3.845869 2.591999,-5.661998 L 5.549,21.22 c 0.00462,0 0.00913,0 0.0135,0 0.00437,0 0.00888,0 0.0135,0 l -0.1,-0.1 c 0,1.816129 0,3.716069 0,5.661998 a 0.10000078,0.09999998 89.662984 0 0 0.1011764,0.09999 c 0.055739,-6.56e-4 0.1127339,-0.0013 0.17,-0.002 A 0.1,0.1 89.662982 0 0 5.846,26.78 c 0,-1.960189 0,-3.929559 0,-5.875 a 0.1,0.10000002 0 0 0 -0.1,-0.1 c -0.110045,0 -0.2187018,0 -0.324,0 a 0.1,0.1 12.227414 0 0 -0.091029,0.0586 c -0.852961,1.875577 -1.67791,3.689559 -2.4579273,5.40474 C 1.9846344,24.312935 1.1573884,22.492149 0.41704387,20.862636 A 0.09999999,0.1 77.783029 0 0 0.326,20.804 c -0.13402362,0 -0.2457971,0 -0.326,0 z m 0.1,0.1 c 0.0669861,0 0.15599495,0 0.26159631,0 0.75881999,1.670179 1.60810029,3.539462 2.52035979,5.547364 a 0.1,0.1 45.008221 0 0 0.1820728,3.3e-5 C 3.7627136,24.795168 4.6096343,22.932873 5.486378,21.005 c 0.00888,0 0.083772,0 0.159622,0 0,1.812748 0,3.748627 0,5.67617 0.075817,-8.92e-4 0.052855,-6.22e-4 0.03,-3.53e-4 0,-1.91061 0,-3.776177 0,-5.560816 A 0.09999999,0.10000137 0 0 0 5.576,21.02 c -0.00462,0 -0.00913,0 -0.0135,0 -0.00437,0 -0.00888,0 -0.0135,0 a 0.09999987,0.10000246 12.299195 0 0 -0.090926,0.05838 C 4.6349862,22.876341 3.7742945,24.756448 2.8927984,26.682 c 0.034607,0 0.00462,0 -0.025576,0 C 2.0118943,24.812167 1.1527496,22.933991 0.30393739,21.078402 A 0.10000004,0.1 77.709475 0 0 0.213,21.02 c -0.00985,0 -0.0195752,0 -0.029,0 a 0.1,0.1 0 0 0 -0.1,0.1 c 0,1.931633 0,3.798581 0,5.561 0.07106709,0 0.0430111,0 0.016,0 0,-2.371743 0,-4.351127 0,-5.777 z m 81.486,-0.1 c 0,1.383947 0,3.419691 0,5.877 a 0.1,0.1 0 0 0 0.1,0.1 c 0.05539,0 0.117619,0 0.184,0 a 0.1,0.1 0 0 0 0.1,-0.1 c 0,-1.797892 0,-3.695219 0,-5.635 l -0.1,0.1 c 0.0096,0 0.01931,0 0.029,0 l -0.08016,-0.04021 c 1.422316,1.906913 2.836188,3.802503 4.202999,5.634999 a 0.09999688,0.10000045 71.429253 0 0 0.0809,0.04021 c 0.09454,-7e-4 0.185568,-0.0014 0.27,-0.002 a 0.1,0.1 89.786809 0 0 0.09926,-0.1 c 0,-1.837165 0,-3.817954 0,-5.874999 A 0.09999996,0.10000117 0 0 0 86.272,20.804 c -0.06049,0 -0.123057,0 -0.186,0 a 0.10000006,0.10000024 0 0 0 -0.1,0.1 c 0,1.883923 0,3.778896 0,5.635 l 0.1,-0.1 c -0.0093,0 -0.01838,0 -0.027,0 l 0.08004,0.04006 c -1.522439,-2.032925 -2.949669,-3.938717 -4.22,-5.635 A 0.09999999,0.1 71.5854 0 0 81.839,20.804 c -0.105785,0 -0.193422,0 -0.253,0 z m 0.1,0.1 c 0.0499,0 0.119499,0 0.202956,0 1.262785,1.686208 2.679535,3.578005 4.190001,5.594943 A 0.1,0.1 71.58675 0 0 86.059,26.639 c 0.0086,0 0.01771,0 0.027,0 a 0.1,0.10000001 0 0 0 0.1,-0.1 c 0,-1.823266 0,-3.684039 0,-5.535 -0.0712,0 -0.04248,0 -0.014,0 0,1.92005 0,3.866562 0,5.675738 0.03001,-2.22e-4 -0.04369,3.24e-4 -0.120112,8.9e-4 -1.357411,-1.819894 -2.760909,-3.701576 -4.172728,-5.594414 A 0.1000053,0.09999942 71.639842 0 0 81.799,21.046 c -0.0097,0 -0.01945,0 -0.029,0 a 0.1,0.09999999 0 0 0 -0.1,0.1 c 0,1.903853 0,3.766811 0,5.535 0.07114,0 0.04307,0 0.016,0 0,-2.412548 0,-4.411871 0,-5.777 z m 14.62,-0.1 c 0,1.406334 0,3.433951 0,5.877 a 0.1,0.1 89.983874 0 0 0.100056,0.1 c 1.068579,-6.02e-4 2.268622,-0.0013 3.553,-0.002 a 0.1,0.1 89.983873 0 0 0.09994,-0.1 c 0,-0.05342 0,-0.109926 0,-0.168 a 0.1,0.1 0 0 0 -0.1,-0.1 c -1.071275,0 -2.169162,0 -3.27,0 0,-0.801168 0,-1.704144 0,-2.59 1.011516,0 2.000809,0 2.944,0 a 0.1,0.1 0 0 0 0.1,-0.1 c 0,-0.0292 0,-0.05761 0,-0.085 0,-0.02739 0,-0.0558 0,-0.085 a 0.1,0.1 0 0 0 -0.1,-0.1 c -0.943511,0 -1.933141,0 -2.945,0 0,-0.71506 0,-1.546513 0,-2.377 1.057753,0 2.112646,0 3.142,0 a 0.1,0.1 0 0 0 0.1,-0.1 c 0,-0.05877 0,-0.115944 0,-0.17 a 0.1,0.1 0 0 0 -0.1,-0.1 c -1.237384,0 -2.39352,0 -3.423,0 z m 0.1,0.1 c 2.39e-4,0 5.84e-4,0 0.001,0 1.001698,0 2.123307,0 3.323,0 0,-0.07718 0,-0.05381 0,-0.03 -1.030111,0 -2.084985,0 -3.142,0 a 0.1,0.10000098 0 0 0 -0.1,0.100001 c 0,0.863712 0,1.729223 0,2.576999 a 0.09999992,0.10000007 0 0 0 0.1,0.1 c 1.046654,0 2.07043,0 3.045,0 l -0.1,-0.1 c 0,0.0292 0,0.05761 0,0.085 0,0.02739 0,0.0558 0,0.085 l 0.1,-0.1 c -0.97425,0 -1.99769,0 -3.044,0 a 0.09999992,0.10000008 0 0 0 -0.1,0.1 c 0,0.917848 0,1.854897 0,2.789999 a 0.1,0.10000106 0 0 0 0.1,0.100001 c 1.100099,0 2.197966,0 3.27,0 0,-0.07704 0,-0.05432 0,-0.03194 -1.144499,6.45e-4 -2.30977,0.0013 -3.353,0.0019 0,-2.398368 0,-4.389854 0,-5.776944 z M 17.529251,20.866224 c -0.550204,1.269119 -1.456973,3.360704 -2.547,5.875 A 0.1,0.1 11.719133 0 0 15.074,26.881 c 0.06009,0 0.127369,0 0.197,0 a 0.09999998,0.10000014 11.623957 0 0 0.09188,-0.06053 c 0.229683,-0.534658 0.466325,-1.085513 0.696997,-1.622471 1.110723,0 2.251582,0 3.27919,0 0.205906,0.499338 0.433696,1.051746 0.668484,1.621122 A 0.1,0.1 78.795383 0 0 20.1,26.881 c 0.06574,0 0.133404,0 0.199,0 a 0.09999978,0.10000002 78.677285 0 0 0.09229,-0.138503 c -0.866325,-2.076563 -1.703447,-4.083129 -2.451001,-5.875 A 0.1,0.1 78.677262 0 0 17.848,20.806 c -0.09715,0 -0.177963,0 -0.227,0 z M 17.621,21.006 c 0.03732,0 0.09304,0 0.160366,0 0.705264,1.690505 1.521812,3.647755 2.367561,5.675 0.106571,0 0.06216,0 0.018,0 -0.235484,-0.571066 -0.463352,-1.123664 -0.668484,-1.621122 A 0.1,0.1 78.812334 0 0 19.406,24.998 c -1.044898,0 -2.209792,0 -3.412,0 a 0.1,0.1 11.623939 0 0 -0.09188,0.06053 c -0.230185,0.535826 -0.466826,1.086679 -0.696997,1.622471 0.05087,0 0.03597,0 0.02122,0 1.063019,-2.451997 1.946427,-4.489697 2.486403,-5.735224 z m 28.443251,-0.139776 c -0.550204,1.269119 -1.456973,3.360704 -2.547,5.875 A 0.1,0.1 11.719147 0 0 43.609,26.881 c 0.061,0 0.129309,0 0.2,0 a 0.09999998,0.10000014 11.580819 0 0 0.09194,-0.06067 c 0.228711,-0.534612 0.46435,-1.085419 0.694046,-1.622333 1.110615,0 2.251474,0 3.279082,0 0.205906,0.499338 0.433696,1.051746 0.668484,1.621122 A 0.1,0.1 78.795384 0 0 48.635,26.881 c 0.06508,0 0.132063,0 0.197,0 a 0.09999978,0.10000002 78.681438 0 0 0.0923,-0.138489 c -0.865971,-2.076563 -1.702752,-4.08313 -2.45,-5.875 A 0.1,0.1 78.68141 0 0 46.382,20.806 c -0.09672,0 -0.177179,0 -0.226,0 z M 46.156,21.006 c 0.0371,0 0.09247,0 0.159355,0 0.704973,1.690495 1.52119,3.647751 2.366596,5.675 0.107205,0 0.06347,0 0.01998,0 -0.235484,-0.571066 -0.463352,-1.123664 -0.668484,-1.621122 A 0.1,0.1 78.809932 0 0 47.941,24.998 c -1.044898,0 -2.209792,0 -3.412,0 a 0.1,0.1 11.580802 0 0 -0.09194,0.06067 c -0.22921,0.53578 -0.464849,1.086584 -0.694046,1.622333 0.04996,0 0.03406,0 0.01833,0 1.063019,-2.451997 1.946427,-4.489697 2.486403,-5.735224 z m 11.564,-0.1 c 0,0.03855 0,0.09807 0,0.17 a 0.1,0.1 0 0 0 0.1,0.1 c 1.078898,0 2.284396,0 3.557138,0 -1.212111,1.719171 -2.478457,3.515265 -3.751867,5.321377 A 0.1,0.09999999 62.592988 0 0 57.607,26.555 c 0,0.07588 0,0.152182 0,0.226 a 0.10000054,0.09999997 0 0 0 0.100001,0.1 c 1.452455,0 2.852259,0 4.132999,0 a 0.1,0.1 0 0 0 0.1,-0.1 c 0,-0.05268 0,-0.110257 0,-0.17 a 0.09999948,0.10000002 0 0 0 -0.1,-0.1 c -1.227808,0 -2.494983,0 -3.757604,0 1.266241,-1.803494 2.524076,-3.595016 3.726445,-5.307538 A 0.10000029,0.09999992 62.536515 0 0 61.827,21.146 c 0,-0.08601 0,-0.167472 0,-0.24 a 0.1,0.1 0 0 0 -0.1,-0.1 c -1.653229,0 -3.021142,0 -3.907,0 z m 0.1,0.1 c 0.867934,0 2.198613,0 3.807,0 0,-0.03642 0,0.03404 0,0.1084 -1.231875,1.754547 -2.521669,3.591588 -3.818842,5.439138 A 0.1,0.1 17.536428 0 0 57.89,26.711 c 1.291929,0 2.590967,0 3.85,0 0,-0.07627 0,-0.05288 0,-0.03 -1.151323,0 -2.516303,0 -3.933,0 0,0.03646 0,-0.02893 0,-0.09429 1.30622,-1.852648 2.60477,-3.694417 3.844729,-5.453085 A 0.1000006,0.09999994 17.592875 0 0 61.569999,20.976 c -1.304435,0 -2.542072,0 -3.649999,0 0,-0.02763 0,-0.05129 0,-0.07 z m 13.432,-0.1 c 0,1.086793 0,3.379835 0,5.875 a 0.1,0.1 0 0 0 0.1,0.1 c 0.06233,0 0.128705,0 0.183,0 a 0.1,0.1 0 0 0 0.1,-0.1 c 0,-1.743081 0,-3.874033 0,-5.875 a 0.1,0.1 0 0 0 -0.1,-0.1 c -0.07772,0 -0.149148,0 -0.183,0 z m 0.1,0.1 c 0.01832,0 0.04764,0 0.083,0 0,1.862862 0,3.950806 0,5.675 0.07445,0 0.04622,0 0.017,0 0,-2.456283 0,-4.702742 0,-5.775 z m -53.723426,0.06818 c 0.290077,0.702262 0.893151,2.162277 1.555925,3.766823 -0.91132,0 -2.03752,0 -2.981988,0 0.483986,-1.132004 1.064248,-2.489192 1.610438,-3.766688 z M 17.821,21.036 c 0,-1.85e-4 0,-5.75e-4 0,-0.001 a 0.1,0.1 56.569986 0 0 -0.191949,-0.03931 c -0.568785,1.330345 -1.17452,2.747111 -1.67,3.906 A 0.1,0.1 11.661348 0 0 16.051,25.041 c 0.974048,0 2.164843,0 3.283,0 a 0.1,0.1 78.778741 0 0 0.09243,-0.138177 c -0.685056,-1.658489 -1.314618,-3.18263 -1.613,-3.905 z m 28.342574,0.03818 c 0.290077,0.702262 0.893151,2.162277 1.555925,3.766823 -0.91132,0 -2.03752,0 -2.981988,0 0.483986,-1.132004 1.064248,-2.489192 1.610438,-3.766688 z M 46.356,21.036 c 0,-1.85e-4 0,-5.75e-4 0,-0.001 a 0.1,0.1 56.565247 0 0 -0.191949,-0.03931 c -0.568785,1.330345 -1.17452,2.747111 -1.67,3.906 A 0.1,0.1 11.269225 0 0 44.586,25.041 c 0.974048,0 2.164843,0 3.283,0 a 0.1,0.1 78.778636 0 0 0.09243,-0.138177 c -0.685056,-1.658489 -1.314618,-3.18263 -1.613,-3.905 z"
     id="path2"
     inkscape:path-effect="#path-effect2"
     inkscape:original-d="m 32.229,20.75 a 3.236,3.236 0 0 0 -1.245,0.229 2.995,2.995 0 0 0 -0.963,0.634 c -0.27,0.27 -0.466,0.596 -0.623,0.977 a 3.226,3.226 0 0 0 -0.226,1.232 3.526,3.526 0 0 0 0.226,1.233 2.871,2.871 0 0 0 0.623,0.99 2.783,2.783 0 0 0 0.977,0.666 c 0.382,0.155 0.806,0.238 1.273,0.238 a 4.58,4.58 0 0 0 1.233,-0.154 c 0.354,-0.113 0.65,-0.227 0.89,-0.367 v -2.563 h -1.712 v 0.155 h 1.53 v 2.308 a 4.75,4.75 0 0 1 -0.85,0.31 4.043,4.043 0 0 1 -1.063,0.13 3.1,3.1 0 0 1 -1.23,-0.229 2.664,2.664 0 0 1 -0.92,-0.637 2.532,2.532 0 0 1 -0.58,-0.933 3.456,3.456 0 0 1 -0.2,-1.147 3.033,3.033 0 0 1 0.2,-1.133 2.876,2.876 0 0 1 0.58,-0.933 2.72,2.72 0 0 1 0.906,-0.623 2.902,2.902 0 0 1 1.175,-0.227 3.052,3.052 0 0 1 0.99,0.17 2.302,2.302 0 0 1 0.468,0.197 2.64,2.64 0 0 1 0.38,0.286 l 0.127,-0.127 A 3.088,3.088 0 0 0 33.318,20.936 2.97,2.97 0 0 0 32.228,20.75 Z M 0,20.904 v 5.877 H 0.184 V 21.12 h 0.029 l 2.59,5.662 H 2.957 L 5.549,21.12 h 0.027 v 5.662 L 5.746,26.78 V 20.905 H 5.422 L 2.873,26.51 0.326,20.904 Z m 81.586,0 v 5.877 h 0.184 v -5.635 h 0.029 l 4.203,5.635 0.27,-0.002 v -5.875 h -0.186 v 5.635 h -0.027 l -4.22,-5.635 z m 14.72,0 v 5.877 l 3.553,-0.002 v -0.168 h -3.37 v -2.79 h 3.044 v -0.17 h -3.045 v -2.577 h 3.242 v -0.17 h -3.423 z m -78.685,0.002 -2.547,5.875 h 0.197 l 0.723,-1.683 h 3.412 l 0.694,1.683 h 0.199 l -2.451,-5.875 z m 28.535,0 -2.547,5.875 h 0.2 l 0.72,-1.683 h 3.412 l 0.694,1.683 h 0.197 l -2.45,-5.875 z m 11.664,0 v 0.17 h 3.75 l -3.863,5.479 v 0.226 h 4.133 v -0.17 h -3.95 l 3.837,-5.465 v -0.24 z m 13.532,0 v 5.875 h 0.183 v -5.875 z m -53.631,0.13 1.613,3.905 h -3.283 l 1.67,-3.906 z m 28.535,0 1.613,3.905 h -3.283 l 1.67,-3.906 z"
     inkscape:linked-fill="path3"
     style="fill-rule:nonzero;stroke:none" />
</svg>
