<svg viewBox="0 0 100 26.95" width="100" height="26.95" xmlns="http://www.w3.org/2000/svg"><path d="M5.577 26.781v-5.662h-.029l-2.59 5.662h-.156l-2.59-5.662H.183v5.662H0v-5.876h.326l2.547 5.605 2.548-5.605h.325v5.875zM17.721 21.035l-1.67 3.906h3.283zm2.378 5.746-.693-1.684h-3.412l-.722 1.684h-.198l2.548-5.874h.226l2.45 5.874zM33.503 26.795a4.58 4.58 0 0 1-1.232.155c-.467 0-.891-.085-1.273-.24a2.783 2.783 0 0 1-.976-.666 2.871 2.871 0 0 1-.624-.99 3.526 3.526 0 0 1-.226-1.231c0-.44.07-.85.226-1.233.157-.381.354-.707.624-.976.268-.269.594-.48.962-.636a3.236 3.236 0 0 1 1.245-.228c.397 0 .765.057 1.09.185.326.128.623.282.877.496l-.127.127a2.64 2.64 0 0 0-.382-.284 2.302 2.302 0 0 0-.467-.197 3.052 3.052 0 0 0-.99-.17 2.902 2.902 0 0 0-1.175.226 2.72 2.72 0 0 0-.906.623 2.876 2.876 0 0 0-.581.934 3.033 3.033 0 0 0-.198 1.133c0 .395.07.777.199 1.146.127.353.325.68.58.934a2.664 2.664 0 0 0 .92.636 3.1 3.1 0 0 0 1.23.228c.397 0 .751-.043 1.063-.128a4.75 4.75 0 0 0 .85-.311V24.02h-1.53v-.155h1.713v2.562c-.24.14-.538.255-.892.368M46.256 21.035l-1.67 3.906h3.283zm2.378 5.746-.693-1.684h-3.412l-.721 1.684h-.199l2.548-5.874h.226l2.45 5.874zM57.707 26.781v-.226l3.863-5.478h-3.75v-.17h3.907v.24l-3.837 5.464h3.95v.17zM71.352 20.906h.184v5.875h-.184zM86.001 26.781l-4.203-5.634h-.029v5.634h-.183v-5.876h.254l4.218 5.634h.028v-5.634h.185v5.875zM96.306 26.781v-5.876h3.425v.17h-3.242v2.576h3.044v.17h-3.044v2.79h3.37v.169zM1.896 2.875V1.742h6.936V.043H.056v2.831zM1.896 7.403h6.511V5.704h-6.51V4.572H.056v9.06h9.058v-1.7H1.896ZM.056 15.259h9.045v1.656H.056ZM19.434.382v13.249h-.425V.382h-4.642V0h9.71v.382zM39.915 13.631v-6.85h-9.173v6.85h-.424V.001h.424v6.398h9.173V.001h.424v13.63zM65.223 5.959h2.194a6.75 6.75 0 0 0 1.245-.113c.383-.07.723-.198 1.005-.382.283-.17.525-.396.68-.68.17-.282.255-.622.255-1.033 0-.41-.086-.75-.255-1.033a1.994 1.994 0 0 0-.665-.665 2.846 2.846 0 0 0-.977-.353 6.265 6.265 0 0 0-1.175-.1h-2.335v4.36zm0 7.672h-1.91V.001h4.372c.652 0 1.275.07 1.868.198a4.788 4.788 0 0 1 1.559.651 3.19 3.19 0 0 1 1.047 1.16c.254.482.382 1.076.382 1.77 0 1.005-.311 1.811-.92 2.42-.623.623-1.415 1.005-2.392 1.175l3.808 6.256h-2.308l-3.468-6.073h-2.038zM80.906 13.631h-1.911V.001h1.91zM90.658 8.606h5.11L93.22 2.208Zm-2.038 5.025h-2.123L92.413.001h1.727l5.86 13.63h-2.152l-1.387-3.354h-6.468zM49.738 3.015V1.6h6.935V.043h-8.775v2.972zM49.738 11.933v-4.53h6.51V5.705h-6.51V4.572h-1.84v9.06h9.059v-1.7z" style="fill:#009ed0"/></svg>