<?xml version="1.0" encoding="UTF-8" standalone="no"?>
<svg
   viewBox="0 0 100 26.950267"
   version="1.1"
   id="svg19"
   sodipodi:docname="em.svg"
   width="100"
   height="26.950268"
   inkscape:version="1.4 (e7c3feb100, 2024-10-09)"
   xmlns:inkscape="http://www.inkscape.org/namespaces/inkscape"
   xmlns:sodipodi="http://sodipodi.sourceforge.net/DTD/sodipodi-0.dtd"
   xmlns="http://www.w3.org/2000/svg"
   xmlns:svg="http://www.w3.org/2000/svg">
  <defs
     id="defs19" />
  <sodipodi:namedview
     id="namedview19"
     pagecolor="#ffffff"
     bordercolor="#000000"
     borderopacity="0.25"
     inkscape:showpageshadow="2"
     inkscape:pageopacity="0.0"
     inkscape:pagecheckerboard="0"
     inkscape:deskcolor="#d1d1d1"
     inkscape:zoom="6.900066"
     inkscape:cx="51.37632"
     inkscape:cy="14.637541"
     inkscape:window-width="1506"
     inkscape:window-height="873"
     inkscape:window-x="0"
     inkscape:window-y="0"
     inkscape:window-maximized="1"
     inkscape:current-layer="svg19" />
  <path
     id="path1"
     style="fill:#009ed0"
     d="M 32.228516 20.75 A 3.236 3.236 0 0 0 30.984375 20.978516 C 30.616375 21.134516 30.289484 21.344281 30.021484 21.613281 C 29.751484 21.882281 29.555438 22.208844 29.398438 22.589844 C 29.242437 22.972844 29.171875 23.382266 29.171875 23.822266 A 3.526 3.526 0 0 0 29.398438 25.054688 A 2.871 2.871 0 0 0 30.021484 26.044922 A 2.783 2.783 0 0 0 30.998047 26.710938 C 31.380047 26.865938 31.804484 26.949219 32.271484 26.949219 A 4.58 4.58 0 0 0 33.503906 26.794922 C 33.857906 26.681922 34.154531 26.567734 34.394531 26.427734 L 34.394531 23.865234 L 32.681641 23.865234 L 32.681641 24.019531 L 34.212891 24.019531 L 34.212891 26.328125 A 4.75 4.75 0 0 1 33.361328 26.638672 C 33.049328 26.723672 32.695828 26.767578 32.298828 26.767578 A 3.1 3.1 0 0 1 31.068359 26.539062 A 2.664 2.664 0 0 1 30.148438 25.902344 C 29.893438 25.648344 29.695359 25.32175 29.568359 24.96875 C 29.439359 24.59975 29.369141 24.217266 29.369141 23.822266 A 3.033 3.033 0 0 1 29.568359 22.689453 A 2.876 2.876 0 0 1 30.148438 21.755859 A 2.72 2.72 0 0 1 31.054688 21.132812 A 2.902 2.902 0 0 1 32.230469 20.90625 A 3.052 3.052 0 0 1 33.220703 21.076172 A 2.302 2.302 0 0 1 33.6875 21.273438 A 2.64 2.64 0 0 1 34.068359 21.558594 L 34.195312 21.431641 C 33.941312 21.217641 33.644359 21.063547 33.318359 20.935547 C 32.993359 20.807547 32.625516 20.75 32.228516 20.75 z M 0 20.904297 L 0 26.78125 L 0.18359375 26.78125 L 0.18359375 21.119141 L 0.21289062 21.119141 L 2.8027344 26.78125 L 2.9570312 26.78125 L 5.5488281 21.119141 L 5.5761719 21.119141 L 5.5761719 26.78125 L 5.7460938 26.779297 L 5.7460938 20.904297 L 5.421875 20.904297 L 2.8730469 26.509766 L 0.32617188 20.904297 L 0 20.904297 z M 81.585938 20.904297 L 81.585938 26.78125 L 81.769531 26.78125 L 81.769531 21.146484 L 81.798828 21.146484 L 86.001953 26.78125 L 86.271484 26.779297 L 86.271484 20.904297 L 86.085938 20.904297 L 86.085938 26.539062 L 86.058594 26.539062 L 81.839844 20.904297 L 81.585938 20.904297 z M 96.306641 20.904297 L 96.306641 26.78125 L 99.859375 26.779297 L 99.859375 26.611328 L 96.488281 26.611328 L 96.488281 23.820312 L 99.533203 23.820312 L 99.533203 23.650391 L 96.488281 23.650391 L 96.488281 21.074219 L 99.730469 21.074219 L 99.730469 20.904297 L 96.306641 20.904297 z M 17.621094 20.90625 L 15.074219 26.78125 L 15.271484 26.78125 L 15.994141 25.097656 L 19.40625 25.097656 L 20.099609 26.78125 L 20.298828 26.78125 L 17.847656 20.90625 L 17.621094 20.90625 z M 46.15625 20.90625 L 43.609375 26.78125 L 43.808594 26.78125 L 44.529297 25.097656 L 47.941406 25.097656 L 48.634766 26.78125 L 48.832031 26.78125 L 46.382812 20.90625 L 46.15625 20.90625 z M 57.820312 20.90625 L 57.820312 21.076172 L 61.570312 21.076172 L 57.707031 26.554688 L 57.707031 26.78125 L 61.839844 26.78125 L 61.839844 26.611328 L 57.890625 26.611328 L 61.726562 21.146484 L 61.726562 20.90625 L 57.820312 20.90625 z M 71.351562 20.90625 L 71.351562 26.78125 L 71.535156 26.78125 L 71.535156 20.90625 L 71.351562 20.90625 z M 17.720703 21.035156 L 19.333984 24.941406 L 16.050781 24.941406 L 17.720703 21.035156 z M 46.255859 21.035156 L 47.869141 24.941406 L 44.585938 24.941406 L 46.255859 21.035156 z " />
  <path
     id="path9"
     style="fill:#009ed0"
     d="M 14.367188 0 L 14.367188 0.3828125 L 19.009766 0.3828125 L 19.009766 13.630859 L 19.433594 13.630859 L 19.433594 0.3828125 L 24.076172 0.3828125 L 24.076172 0 L 14.367188 0 z M 30.318359 0.001953125 L 30.318359 13.630859 L 30.742188 13.630859 L 30.742188 6.78125 L 39.914062 6.78125 L 39.914062 13.630859 L 40.339844 13.630859 L 40.339844 0.001953125 L 39.914062 0.001953125 L 39.914062 6.3984375 L 30.742188 6.3984375 L 30.742188 0.001953125 L 30.318359 0.001953125 z M 63.3125 0.001953125 L 63.3125 13.630859 L 65.222656 13.630859 L 65.222656 7.5585938 L 67.261719 7.5585938 L 70.728516 13.630859 L 73.037109 13.630859 L 69.228516 7.375 C 70.205516 7.205 70.998094 6.8222188 71.621094 6.1992188 C 72.230094 5.5902188 72.541016 4.7842969 72.541016 3.7792969 C 72.541016 3.0852969 72.412203 2.4917656 72.158203 2.0097656 A 3.19 3.19 0 0 0 71.111328 0.84960938 A 4.788 4.788 0 0 0 69.552734 0.19921875 C 68.959734 0.07121875 68.337547 0.001953125 67.685547 0.001953125 L 63.3125 0.001953125 z M 78.994141 0.001953125 L 78.994141 13.630859 L 80.90625 13.630859 L 80.904297 0.001953125 L 78.994141 0.001953125 z M 92.412109 0.001953125 L 86.496094 13.630859 L 88.619141 13.630859 L 89.992188 10.277344 L 96.460938 10.277344 L 97.847656 13.630859 L 100 13.630859 L 94.140625 0.001953125 L 92.412109 0.001953125 z M 0.056640625 0.04296875 L 0.056640625 2.8730469 L 1.8964844 2.875 L 1.8964844 1.7421875 L 8.8320312 1.7421875 L 8.8320312 0.04296875 L 0.056640625 0.04296875 z M 47.898438 0.04296875 L 47.898438 3.015625 L 49.738281 3.015625 L 49.738281 1.5996094 L 56.673828 1.5996094 L 56.673828 0.04296875 L 47.898438 0.04296875 z M 65.195312 1.5996094 L 67.529297 1.5996094 A 6.265 6.265 0 0 1 68.705078 1.6992188 A 2.846 2.846 0 0 1 69.681641 2.0527344 A 1.994 1.994 0 0 1 70.347656 2.71875 C 70.516656 3.00175 70.601562 3.3419531 70.601562 3.7519531 C 70.601562 4.1629531 70.517656 4.5012031 70.347656 4.7832031 C 70.192656 5.0672031 69.950969 5.2948438 69.667969 5.4648438 C 69.385969 5.6488437 69.045109 5.7757031 68.662109 5.8457031 A 6.75 6.75 0 0 1 67.417969 5.9589844 L 65.222656 5.9589844 L 65.195312 5.9609375 L 65.195312 1.5996094 z M 93.220703 2.2070312 L 95.767578 8.6054688 L 90.658203 8.6054688 L 93.220703 2.2070312 z M 0.056640625 4.5722656 L 0.056640625 13.632812 L 9.1132812 13.632812 L 9.1132812 11.931641 L 1.8964844 11.931641 L 1.8964844 7.4023438 L 8.40625 7.4023438 L 8.40625 5.703125 L 1.8964844 5.703125 L 1.8964844 4.5722656 L 0.056640625 4.5722656 z M 47.898438 4.5722656 L 47.898438 13.632812 L 56.957031 13.632812 L 56.957031 11.931641 L 49.738281 11.933594 L 49.738281 7.4023438 L 56.248047 7.4023438 L 56.248047 5.7050781 L 49.738281 5.7050781 L 49.738281 4.5722656 L 47.898438 4.5722656 z M 0.056640625 15.259766 L 0.056640625 16.914062 L 9.1015625 16.914062 L 9.1015625 15.259766 L 0.056640625 15.259766 z " />
</svg>
