<?xml version="1.0" encoding="UTF-8" standalone="no"?>
<svg
   viewBox="0 0 100 24.950267"
   version="1.1"
   id="svg19"
   sodipodi:docname="etheria-magazine5.svg"
   width="100"
   height="24.950268"
   inkscape:version="1.4 (e7c3feb100, 2024-10-09)"
   xmlns:inkscape="http://www.inkscape.org/namespaces/inkscape"
   xmlns:sodipodi="http://sodipodi.sourceforge.net/DTD/sodipodi-0.dtd"
   xmlns="http://www.w3.org/2000/svg"
   xmlns:svg="http://www.w3.org/2000/svg">
  <defs
     id="defs19" />
  <sodipodi:namedview
     id="namedview19"
     pagecolor="#ffffff"
     bordercolor="#000000"
     borderopacity="0.25"
     inkscape:showpageshadow="2"
     inkscape:pageopacity="0.0"
     inkscape:pagecheckerboard="0"
     inkscape:deskcolor="#d1d1d1"
     inkscape:zoom="6.5200308"
     inkscape:cx="53.604041"
     inkscape:cy="3.9877112"
     inkscape:window-width="1506"
     inkscape:window-height="873"
     inkscape:window-x="0"
     inkscape:window-y="0"
     inkscape:window-maximized="1"
     inkscape:current-layer="svg19" />
  <g
     id="g19"
     transform="matrix(0.85220752,0,0,0.85220752,14.899409,-35.904966)">
    <path
       d="M 5.577,66.356 V 60.694 H 5.548 l -2.59,5.662 H 2.802 L 0.212,60.694 H 0.183 v 5.662 H 0 V 60.48 h 0.326 l 2.547,5.605 2.548,-5.605 h 0.325 v 5.875 z"
       id="path1"
       style="fill:#009ed0" />
    <path
       d="m 17.721,60.61 -1.67,3.906 h 3.283 z m 2.378,5.746 -0.693,-1.684 h -3.412 l -0.722,1.684 h -0.198 l 2.548,-5.874 h 0.226 l 2.45,5.874 z"
       id="path2"
       style="fill:#009ed0" />
    <path
       d="m 33.503,66.37 a 4.58,4.58 0 0 1 -1.232,0.155 c -0.467,0 -0.891,-0.085 -1.273,-0.24 a 2.783,2.783 0 0 1 -0.976,-0.666 2.871,2.871 0 0 1 -0.624,-0.99 3.526,3.526 0 0 1 -0.226,-1.231 c 0,-0.44 0.07,-0.85 0.226,-1.233 0.157,-0.381 0.354,-0.707 0.624,-0.976 0.268,-0.269 0.594,-0.48 0.962,-0.636 a 3.236,3.236 0 0 1 1.245,-0.228 c 0.397,0 0.765,0.057 1.09,0.185 0.326,0.128 0.623,0.282 0.877,0.496 l -0.127,0.127 a 2.64,2.64 0 0 0 -0.382,-0.284 2.302,2.302 0 0 0 -0.467,-0.197 3.052,3.052 0 0 0 -0.99,-0.17 2.902,2.902 0 0 0 -1.175,0.226 2.72,2.72 0 0 0 -0.906,0.623 2.876,2.876 0 0 0 -0.581,0.934 3.033,3.033 0 0 0 -0.198,1.133 c 0,0.395 0.07,0.777 0.199,1.146 0.127,0.353 0.325,0.68 0.58,0.934 a 2.664,2.664 0 0 0 0.92,0.636 3.1,3.1 0 0 0 1.23,0.228 c 0.397,0 0.751,-0.043 1.063,-0.128 a 4.75,4.75 0 0 0 0.85,-0.311 v -2.308 h -1.53 V 63.44 h 1.713 v 2.562 c -0.24,0.14 -0.538,0.255 -0.892,0.368"
       id="path3"
       style="fill:#009ed0" />
    <path
       d="m 46.256,60.61 -1.67,3.906 h 3.283 z m 2.378,5.746 -0.693,-1.684 h -3.412 l -0.721,1.684 h -0.199 l 2.548,-5.874 h 0.226 l 2.45,5.874 z"
       id="path4"
       style="fill:#009ed0" />
    <path
       d="M 57.707,66.356 V 66.13 l 3.863,-5.478 h -3.75 v -0.17 h 3.907 v 0.24 l -3.837,5.464 h 3.95 v 0.17 z"
       id="path5"
       style="fill:#009ed0" />
    <path
       d="m 71.352,60.481 h 0.184 v 5.875 h -0.184 z"
       id="path6"
       style="fill:#009ed0" />
    <path
       d="m 86.001,66.356 -4.203,-5.634 h -0.029 v 5.634 H 81.586 V 60.48 h 0.254 l 4.218,5.634 h 0.028 V 60.48 h 0.185 v 5.875 z"
       id="path7"
       style="fill:#009ed0" />
    <path
       d="M 96.306,66.356 V 60.48 h 3.425 v 0.17 h -3.242 v 2.576 h 3.044 v 0.17 h -3.044 v 2.79 h 3.37 v 0.169 z"
       id="path8"
       style="fill:#009ed0" />
  </g>
  <path
     d="M 1.896,2.875 V 1.742 H 8.832 V 0.043 H 0.056 v 2.831 z"
     id="path9"
     style="fill:#009ed0" />
  <path
     d="M 1.896,7.403 H 8.407 V 5.704 H 1.897 V 4.572 H 0.056 v 9.06 h 9.058 v -1.7 H 1.896 Z"
     id="path10"
     style="fill:#009ed0" />
  <path
     d="m 0.056,15.259 h 9.045 v 1.656 H 0.056 Z"
     id="path11"
     style="fill:#009ed0" />
  <path
     d="M 19.434,0.382 V 13.631 H 19.009 V 0.382 H 14.367 V 0 h 9.71 v 0.382 z"
     id="path12"
     style="fill:#009ed0" />
  <path
     d="m 39.915,13.631 v -6.85 h -9.173 v 6.85 H 30.318 V 10e-4 h 0.424 v 6.398 h 9.173 V 0.001 h 0.424 v 13.63 z"
     id="path13"
     style="fill:#009ed0" />
  <path
     d="m 65.223,5.959 h 2.194 a 6.75,6.75 0 0 0 1.245,-0.113 c 0.383,-0.07 0.723,-0.198 1.005,-0.382 0.283,-0.17 0.525,-0.396 0.68,-0.68 0.17,-0.282 0.255,-0.622 0.255,-1.033 0,-0.41 -0.086,-0.75 -0.255,-1.033 A 1.994,1.994 0 0 0 69.682,2.053 2.846,2.846 0 0 0 68.705,1.7 6.265,6.265 0 0 0 67.53,1.6 h -2.335 v 4.36 z m 0,7.672 h -1.91 V 10e-4 h 4.372 c 0.652,0 1.275,0.07 1.868,0.198 a 4.788,4.788 0 0 1 1.559,0.651 3.19,3.19 0 0 1 1.047,1.16 c 0.254,0.482 0.382,1.076 0.382,1.77 0,1.005 -0.311,1.811 -0.92,2.42 -0.623,0.623 -1.415,1.005 -2.392,1.175 l 3.808,6.256 H 70.729 L 67.261,7.558 h -2.038 z"
     id="path14"
     style="fill:#009ed0" />
  <path
     d="M 80.906,13.631 H 78.995 V 10e-4 h 1.91 z"
     id="path15"
     style="fill:#009ed0" />
  <path
     d="m 90.658,8.606 h 5.11 L 93.22,2.208 Z m -2.038,5.025 h -2.123 l 5.916,-13.63 h 1.727 l 5.86,13.63 h -2.152 l -1.387,-3.354 h -6.468 z"
     id="path16"
     style="fill:#009ed0" />
  <path
     d="M 49.738,3.015 V 1.6 h 6.935 V 0.043 h -8.775 v 2.972 z"
     id="path17"
     style="fill:#009ed0" />
  <path
     d="m 49.738,11.933 v -4.53 h 6.51 V 5.705 h -6.51 V 4.572 h -1.84 v 9.06 h 9.059 v -1.7 z"
     id="path18"
     style="fill:#009ed0" />
</svg>
