<?xml version="1.0" encoding="UTF-8" standalone="no"?>
<svg
   viewBox="0 0 220.57722 16.915"
   version="1.1"
   id="svg19"
   sodipodi:docname="etheria-magazine2.svg"
   width="220.57722"
   height="16.915001"
   inkscape:version="1.4 (e7c3feb100, 2024-10-09)"
   xmlns:inkscape="http://www.inkscape.org/namespaces/inkscape"
   xmlns:sodipodi="http://sodipodi.sourceforge.net/DTD/sodipodi-0.dtd"
   xmlns="http://www.w3.org/2000/svg"
   xmlns:svg="http://www.w3.org/2000/svg">
  <defs
     id="defs19" />
  <sodipodi:namedview
     id="namedview19"
     pagecolor="#ffffff"
     bordercolor="#000000"
     borderopacity="0.25"
     inkscape:showpageshadow="2"
     inkscape:pageopacity="0.0"
     inkscape:pagecheckerboard="0"
     inkscape:deskcolor="#d1d1d1"
     inkscape:zoom="1.5471"
     inkscape:cx="189.06341"
     inkscape:cy="-7.1100769"
     inkscape:window-width="1506"
     inkscape:window-height="873"
     inkscape:window-x="0"
     inkscape:window-y="0"
     inkscape:window-maximized="1"
     inkscape:current-layer="svg19"
     showgrid="false" />
  <path
     d="M 117.59247,13.63 V 0.49639549 h -0.0672 L 111.51743,13.63 h -0.36186 L 105.1478,0.49639549 h -0.0672 V 13.63 h -0.42448 V 0 h 0.7562 l 5.908,13.001386 L 117.23067,0 h 0.75387 v 13.627681 z"
     id="path1"
     style="fill:#009ed0;stroke-width:2.3196" />
  <path
     d="m 129.51838,0.29701054 -3.87506,9.06346226 h 7.61785 z M 135.03627,13.63 133.42825,9.7224544 h -7.9172 L 123.83573,13.63 h -0.45944 L 129.28866,0 h 0.52441 l 5.68496,13.63 z"
     id="path2"
     style="fill:#009ed0;stroke-width:2.32039" />
  <path
     d="m 150.40997,13.289693 a 10.067529,10.067529 0 0 1 -2.70813,0.340712 c -1.02653,0 -1.95855,-0.186841 -2.79824,-0.527555 a 6.117453,6.117453 0 0 1 -2.1454,-1.463968 6.3108902,6.3108902 0 0 1 -1.37164,-2.1761693 7.7506789,7.7506789 0 0 1 -0.49679,-2.7059232 c 0,-0.9671862 0.15387,-1.8684281 0.49679,-2.7103197 0.34511,-0.8374953 0.77814,-1.5540924 1.37164,-2.1453949 0.58911,-0.5913025 1.3057,-1.05511229 2.11462,-1.39802377 a 7.1132152,7.1132152 0 0 1 2.7367,-0.50117833 c 0.87266,0 1.68158,0.12529458 2.39599,0.40665785 0.71659,0.28136328 1.36945,0.61987845 1.92778,1.09028265 l -0.27916,0.2791652 a 5.8031175,5.8031175 0 0 0 -0.83971,-0.6242748 5.0601426,5.0601426 0 0 0 -1.02653,-0.43303566 6.7087555,6.7087555 0 0 0 -2.17617,-0.3736856 6.379033,6.379033 0 0 0 -2.58283,0.49678202 5.9789695,5.9789695 0 0 0 -1.99152,1.36944784 6.321881,6.321881 0 0 0 -1.27713,2.0530726 6.6669906,6.6669906 0 0 0 -0.43523,2.4905046 c 0,0.8682694 0.15387,1.7079629 0.43743,2.5190805 0.27916,0.775948 0.71441,1.494743 1.27493,2.053072 a 5.8558731,5.8558731 0 0 0 2.02229,1.398024 6.8142667,6.8142667 0 0 0 2.70373,0.501179 c 0.87268,0 1.65081,-0.09452 2.33663,-0.281364 a 10.441215,10.441215 0 0 0 1.86843,-0.683624 V 7.1898251 h -3.36317 V 6.8491118 h 3.76543 v 5.6316612 c -0.52755,0.307742 -1.1826,0.560528 -1.96074,0.80892"
     id="path3"
     style="fill:#009ed0;stroke-width:2.19815" />
  <path
     d="m 163.90454,0.29701054 -3.87506,9.06346226 h 7.61785 z M 169.42244,13.63 167.81441,9.7224544 h -7.91719 L 158.22421,13.63 h -0.46175 L 163.67483,0 h 0.5244 l 5.68497,13.63 z"
     id="path4"
     style="fill:#009ed0;stroke-width:2.32039" />
  <path
     d="m 175.27595,13.63 v -0.52441 l 8.96368,-12.71112288 h -8.70147 V 0 h 9.06578 V 0.55689477 L 175.70059,13.235532 h 9.16555 V 13.63 Z"
     id="path5"
     style="fill:#009ed0;stroke-width:2.32039" />
  <path
     d="m 190.25789,0 h 0.42688 v 13.63 h -0.42688 z"
     id="path6"
     style="fill:#009ed0;stroke-width:2.32" />
  <path
     d="m 206.31752,13.63 -9.7493,-13.0686556 h -0.0672 V 13.63 h -0.42451 V 0 h 0.58918 l 9.7841,13.068655 h 0.065 V 0 h 0.42912 v 13.62768 z"
     id="path7"
     style="fill:#009ed0;stroke-width:2.3196" />
  <path
     d="M 212.33566,13.63 V 0 h 7.94465 v 0.3943329 h -7.52016 v 5.9753026 h 7.06088 v 0.3943329 h -7.06088 v 6.4716976 h 7.81707 v 0.392014 z"
     id="path8"
     style="fill:#009ed0;stroke-width:2.3196" />
  <path
     d="M 1.84,2.875 V 1.742 H 8.776 V 0.043 H 0 v 2.831 z"
     id="path9"
     style="fill:#009ed0" />
  <path
     d="M 1.84,7.403 H 8.351 V 5.704 H 1.841 V 4.572 H 0 v 9.06 h 9.058 v -1.7 H 1.84 Z"
     id="path10"
     style="fill:#009ed0" />
  <path
     d="m 0,15.259 h 9.045 v 1.656 H 0 Z"
     id="path11"
     style="fill:#009ed0" />
  <path
     d="M 19.378,0.382 V 13.631 H 18.953 V 0.382 H 14.311 V 0 h 9.71 v 0.382 z"
     id="path12"
     style="fill:#009ed0" />
  <path
     d="m 39.859,13.631 v -6.85 h -9.173 v 6.85 H 30.262 V 0.001 h 0.424 v 6.398 h 9.173 V 0.001 h 0.424 v 13.63 z"
     id="path13"
     style="fill:#009ed0" />
  <path
     d="m 65.167,5.959 h 2.194 a 6.75,6.75 0 0 0 1.245,-0.113 c 0.383,-0.07 0.723,-0.198 1.005,-0.382 0.283,-0.17 0.525,-0.396 0.68,-0.68 0.17,-0.282 0.255,-0.622 0.255,-1.033 0,-0.41 -0.086,-0.75 -0.255,-1.033 A 1.994,1.994 0 0 0 69.626,2.053 2.846,2.846 0 0 0 68.649,1.7 6.265,6.265 0 0 0 67.474,1.6 h -2.335 v 4.36 z m 0,7.672 h -1.91 V 0.001 h 4.372 c 0.652,0 1.275,0.07 1.868,0.198 a 4.788,4.788 0 0 1 1.559,0.651 3.19,3.19 0 0 1 1.047,1.16 c 0.254,0.482 0.382,1.076 0.382,1.77 0,1.005 -0.311,1.811 -0.92,2.42 -0.623,0.623 -1.415,1.005 -2.392,1.175 l 3.808,6.256 H 70.673 L 67.205,7.558 h -2.038 z"
     id="path14"
     style="fill:#009ed0" />
  <path
     d="M 80.85,13.631 H 78.939 V 0.001 h 1.91 z"
     id="path15"
     style="fill:#009ed0" />
  <path
     d="m 90.602,8.606 h 5.11 L 93.164,2.208 Z m -2.038,5.025 h -2.123 l 5.916,-13.63 h 1.727 l 5.86,13.63 h -2.152 l -1.387,-3.354 h -6.468 z"
     id="path16"
     style="fill:#009ed0" />
  <path
     d="M 49.682,3.015 V 1.6 h 6.935 V 0.043 h -8.775 v 2.972 z"
     id="path17"
     style="fill:#009ed0" />
  <path
     d="m 49.682,11.933 v -4.53 h 6.51 V 5.705 h -6.51 V 4.572 h -1.84 v 9.06 h 9.059 v -1.7 z"
     id="path18"
     style="fill:#009ed0" />
</svg>
