<?xml version="1.0" encoding="UTF-8" standalone="no"?>
<svg
   viewBox="0 0 216.91794 16.915"
   version="1.1"
   id="svg19"
   sodipodi:docname="etheria-magazine3.svg"
   width="216.91794"
   height="16.915001"
   inkscape:version="1.4 (e7c3feb100, 2024-10-09)"
   xmlns:inkscape="http://www.inkscape.org/namespaces/inkscape"
   xmlns:sodipodi="http://sodipodi.sourceforge.net/DTD/sodipodi-0.dtd"
   xmlns="http://www.w3.org/2000/svg"
   xmlns:svg="http://www.w3.org/2000/svg">
  <defs
     id="defs19" />
  <sodipodi:namedview
     id="namedview19"
     pagecolor="#ffffff"
     bordercolor="#000000"
     borderopacity="0.25"
     inkscape:showpageshadow="2"
     inkscape:pageopacity="0.0"
     inkscape:pagecheckerboard="0"
     inkscape:deskcolor="#d1d1d1"
     inkscape:zoom="3.0942"
     inkscape:cx="206.03064"
     inkscape:cy="10.018745"
     inkscape:window-width="1506"
     inkscape:window-height="873"
     inkscape:window-x="0"
     inkscape:window-y="0"
     inkscape:window-maximized="1"
     inkscape:current-layer="svg19" />
  <g
     id="g1"
     transform="translate(33.555273,-24.035432)">
    <path
       d="M 76.908389,36.05115 V 26.006746 h -0.05145 L 72.262276,36.05115 H 71.985531 L 67.390864,26.006746 h -0.05145 V 36.05115 h -0.32464 V 25.62711 h 0.578324 l 4.518385,9.943285 4.520159,-9.943285 h 0.576552 v 10.422267 z"
       id="path1"
       style="fill:#009ed0;stroke-width:1.774" />
    <path
       d="m 89.630233,25.857807 -2.963592,6.931616 h 5.826033 z m 4.220016,10.196891 -1.229803,-2.988437 h -6.054959 l -1.281266,2.988437 H 84.93285 l 4.521699,-10.42404 h 0.401062 l 4.347786,10.42404 z"
       id="path2"
       style="fill:#009ed0;stroke-width:1.7746" />
    <path
       d="m 109.61124,36.075987 a 8.1249327,8.1249327 0 0 1 -2.18558,0.274969 c -0.82845,0 -1.58061,-0.15079 -2.25828,-0.425761 a 4.9370497,4.9370497 0 0 1 -1.73143,-1.181485 5.0931619,5.0931619 0 0 1 -1.10698,-1.756262 6.2551337,6.2551337 0 0 1 -0.40092,-2.183797 c 0,-0.780562 0.12417,-1.507904 0.40092,-2.187346 0.27852,-0.675896 0.628,-1.25422 1.10698,-1.731428 0.47543,-0.477205 1.05376,-0.851521 1.70659,-1.128265 a 5.740673,5.740673 0 0 1 2.20862,-0.404472 c 0.70428,0 1.35711,0.101117 1.93366,0.32819 0.57832,0.227072 1.1052,0.500269 1.5558,0.879905 l -0.2253,0.225299 a 4.6833674,4.6833674 0 0 0 -0.67767,-0.503818 4.0837544,4.0837544 0 0 0 -0.82846,-0.349479 5.4142565,5.4142565 0 0 0 -1.75626,-0.301579 5.148156,5.148156 0 0 0 -2.08443,0.400925 4.8252875,4.8252875 0 0 0 -1.60725,1.105203 5.1020319,5.1020319 0 0 0 -1.0307,1.656919 5.3805504,5.3805504 0 0 0 -0.35125,2.009946 c 0,0.70073 0.12418,1.378399 0.35303,2.033005 0.2253,0.626224 0.57655,1.206323 1.02892,1.656919 a 4.7259434,4.7259434 0 0 0 1.63208,1.128267 5.4994086,5.4994086 0 0 0 2.18201,0.404472 c 0.70428,0 1.33227,-0.07629 1.88576,-0.227073 a 8.4265132,8.4265132 0 0 0 1.50791,-0.551715 v -4.094397 h -2.71423 v -0.274971 h 3.03887 v 4.544995 c -0.42576,0.248361 -0.95442,0.452371 -1.58241,0.652834"
       id="path3"
       style="fill:#009ed0;stroke-width:1.774" />
    <path
       d="m 123.61568,25.857807 -2.9636,6.931616 h 5.82604 z m 4.22001,10.196891 -1.2298,-2.988437 h -6.05496 l -1.27948,2.988437 h -0.35315 l 4.5217,-10.42404 h 0.40105 l 4.3478,10.42404 z"
       id="path4"
       style="fill:#009ed0;stroke-width:1.7746" />
    <path
       d="m 135.91351,36.054698 v -0.401061 l 6.85532,-9.721295 h -6.65479 v -0.301684 h 6.93339 v 0.425906 l -6.80917,9.69645 h 7.00971 v 0.301684 z"
       id="path5"
       style="fill:#009ed0;stroke-width:1.7746" />
    <path
       d="m 150.97261,25.628884 h 0.32646 v 10.42404 h -0.32646 z"
       id="path6"
       style="fill:#009ed0;stroke-width:1.77431" />
    <path
       d="m 168.85597,36.05115 -7.45614,-9.994731 h -0.0515 V 36.05115 H 161.0237 V 25.62711 h 0.4506 l 7.48273,9.994732 h 0.0497 V 25.62711 h 0.3282 v 10.422267 z"
       id="path7"
       style="fill:#009ed0;stroke-width:1.774" />
    <path
       d="M 177.05964,36.05115 V 25.62711 h 6.07597 v 0.30158 h -5.75132 v 4.569831 h 5.40007 v 0.301581 h -5.40007 v 4.949467 h 5.97838 v 0.299808 z"
       id="path8"
       style="fill:#009ed0;stroke-width:1.774" />
  </g>
  <path
     d="M 1.84,2.875 V 1.742 H 8.776 V 0.043 H 0 v 2.831 z"
     id="path9"
     style="fill:#009ed0" />
  <path
     d="M 1.84,7.403 H 8.351 V 5.704 H 1.841 V 4.572 H 0 v 9.06 h 9.058 v -1.7 H 1.84 Z"
     id="path10"
     style="fill:#009ed0" />
  <path
     d="m 0,15.259 h 9.045 v 1.656 H 0 Z"
     id="path11"
     style="fill:#009ed0" />
  <path
     d="M 19.378,0.382 V 13.631 H 18.953 V 0.382 H 14.311 V 0 h 9.71 v 0.382 z"
     id="path12"
     style="fill:#009ed0" />
  <path
     d="m 39.859,13.631 v -6.85 h -9.173 v 6.85 H 30.262 V 0.001 h 0.424 v 6.398 h 9.173 V 0.001 h 0.424 v 13.63 z"
     id="path13"
     style="fill:#009ed0" />
  <path
     d="m 65.167,5.959 h 2.194 a 6.75,6.75 0 0 0 1.245,-0.113 c 0.383,-0.07 0.723,-0.198 1.005,-0.382 0.283,-0.17 0.525,-0.396 0.68,-0.68 0.17,-0.282 0.255,-0.622 0.255,-1.033 0,-0.41 -0.086,-0.75 -0.255,-1.033 A 1.994,1.994 0 0 0 69.626,2.053 2.846,2.846 0 0 0 68.649,1.7 6.265,6.265 0 0 0 67.474,1.6 h -2.335 v 4.36 z m 0,7.672 h -1.91 V 0.001 h 4.372 c 0.652,0 1.275,0.07 1.868,0.198 a 4.788,4.788 0 0 1 1.559,0.651 3.19,3.19 0 0 1 1.047,1.16 c 0.254,0.482 0.382,1.076 0.382,1.77 0,1.005 -0.311,1.811 -0.92,2.42 -0.623,0.623 -1.415,1.005 -2.392,1.175 l 3.808,6.256 H 70.673 L 67.205,7.558 h -2.038 z"
     id="path14"
     style="fill:#009ed0" />
  <path
     d="M 80.85,13.631 H 78.939 V 0.001 h 1.91 z"
     id="path15"
     style="fill:#009ed0" />
  <path
     d="m 90.602,8.606 h 5.11 L 93.164,2.208 Z m -2.038,5.025 h -2.123 l 5.916,-13.63 h 1.727 l 5.86,13.63 h -2.152 l -1.387,-3.354 h -6.468 z"
     id="path16"
     style="fill:#009ed0" />
  <path
     d="M 49.682,3.015 V 1.6 h 6.935 V 0.043 h -8.775 v 2.972 z"
     id="path17"
     style="fill:#009ed0" />
  <path
     d="m 49.682,11.933 v -4.53 h 6.51 V 5.705 h -6.51 V 4.572 h -1.84 v 9.06 h 9.059 v -1.7 z"
     id="path18"
     style="fill:#009ed0" />
</svg>
