<?xml version="1.0" encoding="UTF-8" standalone="no"?>
<svg
   viewBox="0 0 143.65442 16.915"
   version="1.1"
   id="svg19"
   sodipodi:docname="etheria-magazine4.svg"
   width="143.65442"
   height="16.915001"
   inkscape:version="1.4 (e7c3feb100, 2024-10-09)"
   xmlns:inkscape="http://www.inkscape.org/namespaces/inkscape"
   xmlns:sodipodi="http://sodipodi.sourceforge.net/DTD/sodipodi-0.dtd"
   xmlns="http://www.w3.org/2000/svg"
   xmlns:svg="http://www.w3.org/2000/svg">
  <defs
     id="defs19">
    <inkscape:path-effect
       effect="powerstroke"
       message=""
       id="path-effect31"
       is_visible="true"
       lpeversion="1.3"
       scale_width="0.2"
       interpolator_type="CentripetalCatmullRom"
       interpolator_beta="0"
       start_linecap_type="zerowidth"
       end_linecap_type="zerowidth"
       offset_points="6,0.5"
       linejoin_type="round"
       miter_limit="4"
       not_jump="false"
       sort_points="true" />
    <inkscape:path-effect
       effect="powerstroke"
       message=""
       id="path-effect29"
       is_visible="true"
       lpeversion="1.3"
       scale_width="0.2"
       interpolator_type="CentripetalCatmullRom"
       interpolator_beta="0"
       start_linecap_type="zerowidth"
       end_linecap_type="zerowidth"
       offset_points="6,0.5"
       linejoin_type="round"
       miter_limit="4"
       not_jump="false"
       sort_points="true" />
    <inkscape:path-effect
       effect="powerstroke"
       message=""
       id="path-effect27"
       is_visible="true"
       lpeversion="1.3"
       scale_width="0.2"
       interpolator_type="CentripetalCatmullRom"
       interpolator_beta="0"
       start_linecap_type="zerowidth"
       end_linecap_type="zerowidth"
       offset_points="2,0.5"
       linejoin_type="round"
       miter_limit="4"
       not_jump="false"
       sort_points="true" />
    <inkscape:path-effect
       effect="powerstroke"
       message=""
       id="path-effect25"
       is_visible="true"
       lpeversion="1.3"
       scale_width="0.2"
       interpolator_type="CentripetalCatmullRom"
       interpolator_beta="0"
       start_linecap_type="zerowidth"
       end_linecap_type="zerowidth"
       offset_points="5,0.5"
       linejoin_type="round"
       miter_limit="4"
       not_jump="false"
       sort_points="true" />
    <inkscape:path-effect
       effect="powerstroke"
       message=""
       id="path-effect23"
       is_visible="true"
       lpeversion="1.3"
       scale_width="0.2"
       interpolator_type="CentripetalCatmullRom"
       interpolator_beta="0"
       start_linecap_type="zerowidth"
       end_linecap_type="zerowidth"
       offset_points="1.5,0.5 | 7,0.5"
       linejoin_type="round"
       miter_limit="4"
       not_jump="false"
       sort_points="true" />
    <inkscape:path-effect
       effect="powerstroke"
       message=""
       id="path-effect21"
       is_visible="true"
       lpeversion="1.3"
       scale_width="0.1"
       interpolator_type="CentripetalCatmullRom"
       interpolator_beta="0.10137457"
       start_linecap_type="zerowidth"
       end_linecap_type="zerowidth"
       offset_points="0.2,0.5 | 15.5,0.5 | 30.8,0.5"
       linejoin_type="round"
       miter_limit="4"
       not_jump="false"
       sort_points="true" />
    <inkscape:path-effect
       effect="powerstroke"
       message=""
       id="path-effect19"
       is_visible="true"
       lpeversion="1.3"
       scale_width="0.2"
       interpolator_type="CentripetalCatmullRom"
       interpolator_beta="0"
       start_linecap_type="zerowidth"
       end_linecap_type="zerowidth"
       offset_points="1.5,0.5 | 7,0.5"
       linejoin_type="round"
       miter_limit="4"
       not_jump="false"
       sort_points="true" />
    <inkscape:path-effect
       effect="powerstroke"
       message=""
       id="path-effect1"
       is_visible="true"
       lpeversion="1.3"
       scale_width="0.2"
       interpolator_type="CentripetalCatmullRom"
       interpolator_beta="0"
       start_linecap_type="zerowidth"
       end_linecap_type="zerowidth"
       offset_points="7.5,0.5"
       linejoin_type="round"
       miter_limit="4"
       not_jump="false"
       sort_points="true" />
    <inkscape:path-effect
       effect="fill_between_many"
       method="bsplinespiro"
       autoreverse="false"
       close="false"
       join="false"
       linkedpaths="#path1,0,1"
       id="path-effect2" />
    <inkscape:path-effect
       effect="fill_between_many"
       method="bsplinespiro"
       autoreverse="false"
       close="false"
       join="false"
       linkedpaths="#path2,0,1"
       id="path-effect20" />
    <inkscape:path-effect
       effect="fill_between_many"
       method="bsplinespiro"
       autoreverse="false"
       close="false"
       join="false"
       linkedpaths="#path3,0,1"
       id="path-effect22" />
    <inkscape:path-effect
       effect="fill_between_many"
       method="bsplinespiro"
       autoreverse="false"
       close="false"
       join="false"
       linkedpaths="#path4,0,1"
       id="path-effect24" />
    <inkscape:path-effect
       effect="fill_between_many"
       method="bsplinespiro"
       autoreverse="false"
       close="false"
       join="false"
       linkedpaths="#path5,0,1"
       id="path-effect26" />
    <inkscape:path-effect
       effect="fill_between_many"
       method="bsplinespiro"
       autoreverse="false"
       close="false"
       join="false"
       linkedpaths="#path6,0,1"
       id="path-effect28" />
    <inkscape:path-effect
       effect="fill_between_many"
       method="bsplinespiro"
       autoreverse="false"
       close="false"
       join="false"
       linkedpaths="#path7,0,1"
       id="path-effect30" />
    <inkscape:path-effect
       effect="fill_between_many"
       method="bsplinespiro"
       autoreverse="false"
       close="false"
       join="false"
       linkedpaths="#path8,0,1"
       id="path-effect32" />
  </defs>
  <sodipodi:namedview
     id="namedview19"
     pagecolor="#ffffff"
     bordercolor="#000000"
     borderopacity="0.25"
     inkscape:showpageshadow="2"
     inkscape:pageopacity="0.0"
     inkscape:pagecheckerboard="0"
     inkscape:deskcolor="#d1d1d1"
     inkscape:zoom="8.013978"
     inkscape:cx="119.66591"
     inkscape:cy="20.339462"
     inkscape:window-width="1506"
     inkscape:window-height="873"
     inkscape:window-x="0"
     inkscape:window-y="0"
     inkscape:window-maximized="1"
     inkscape:current-layer="svg19"
     showgrid="false" />
  <path
     inkscape:original-d="M 0,0"
     inkscape:path-effect="#path-effect2"
     d="M 111.41152,6.0313993 V 0.36939929 h -0.029 l -2.59,5.66200001 h -0.156 l -2.59,-5.66200001 h -0.029 V 6.0313993 h -0.183 V 0.15539929 h 0.326 l 2.547,5.60500001 2.548,-5.60500001 h 0.325 V 6.0303993 Z"
     id="path19"
     style="fill:#009ed0"
     transform="matrix(1.0008535,0,0,1.0008535,-2.0867571,7.089736e-5)" />
  <path
     d="m 111.51152,6.0313993 c 0,-1.3929719 0,-3.3342646 0,-5.66200001 a 0.1,0.1 0 0 0 -0.1,-0.1 c -0.009,0 -0.0185,0 -0.029,0 a 0.1,0.1 12.291205 0 0 -0.0909,0.058402 c -0.81164,1.774331 -1.67231,3.6558359 -2.56328,5.603598 0.0341,0 0.003,0 -0.0276,0 -0.84896,-1.8559141 -1.7081,-3.7340884 -2.56328,-5.603598 a 0.1,0.1 77.709481 0 0 -0.0909,-0.058402 c -0.01,0 -0.0195,0 -0.029,0 a 0.1,0.10000079 0 0 0 -0.1,0.10000079 c 0,1.94592942 0,3.84586882 0,5.66199782 l 0.1,-0.099999 c -0.0313,0 -0.0619,0 -0.0915,0 -0.0296,0 -0.0602,0 -0.0915,0 l 0.1,0.099999 c 0,-1.8536493 0,-3.791428 0,-5.77599861 -0.014,0 0.0735,0 0.1616,0 0.84101,1.85073951 1.68576,3.70973201 2.52036,5.54637051 a 0.10000002,0.09999998 45.004242 0 0 0.18207,1.35e-5 c 0.85614,-1.8832988 1.70159,-3.7430934 2.52136,-5.54638401 0.0127,0 0.0879,0 0.16061,0 0,1.98905091 0,3.93492261 0,5.67559001 -0.0265,1.569e-4 -0.0499,2.952e-4 -0.0696,4.118e-4 z m -0.0994,0.099998 c 0.0416,-2.46e-4 0.0995,-5.888e-4 0.169,-0.001 a 0.1,0.1 89.830488 0 0 0.0994,-0.099998 c 0,-1.765876 0,-3.7460905 0,-5.87500001 a 0.1,0.1 0 0 0 -0.1,-0.1 c -0.10286,0 -0.212,0 -0.325,0 a 0.1,0.1 12.223529 0 0 -0.091,0.05861603 c -0.79904,1.75768018 -1.62266,3.56945548 -2.45695,5.40470518 -0.81379,-1.7908366 -1.63673,-3.601834 -2.45598,-5.40469171 a 0.1,0.1 77.781104 0 0 -0.091,-0.0586295 c -0.10982,0 -0.21911,0 -0.326,0 a 0.09999995,0.10000082 0 0 0 -0.1,0.10000082 c 0,2.01947739 0,3.99122669 0,5.87599779 a 0.09999996,0.10000142 0 0 0 0.1,0.1000014 c 0.0313,0 0.0619,0 0.0915,0 0.0296,0 0.0602,0 0.0915,0 a 0.09999996,0.10000137 0 0 0 0.1,-0.1000014 c 0,-1.816129 0,-3.7160684 0,-5.66199782 l -0.1,0.0999992 c 0.01,0 0.0192,0 0.029,0 l -0.0909,-0.058402 c 0.86415,1.88912202 1.73235,3.78709142 2.59,5.66200002 a 0.10000004,0.1 77.709474 0 0 0.0909,0.058402 c 0.053,0 0.1053,0 0.156,0 a 0.1,0.1 12.290277 0 0 0.0909,-0.058402 c 0.90048,-1.968556 1.77025,-3.8699411 2.59,-5.66200002 l -0.0909,0.058402 c 0.0105,0 0.0203,0 0.029,0 l -0.1,-0.1 c 0,2.32773541 0,4.26902811 0,5.66200001 z"
     id="path1"
     style="fill:#009ed0;fill-rule:nonzero;stroke:none;stroke-opacity:1"
     inkscape:path-effect="#path-effect1"
     inkscape:original-d="M 111.41152,6.0313993 V 0.36939929 h -0.029 l -2.59,5.66200001 h -0.156 l -2.59,-5.66200001 h -0.029 V 6.0313993 h -0.183 V 0.15539929 h 0.326 l 2.547,5.60500001 2.548,-5.60500001 h 0.325 V 6.0303993 Z"
     inkscape:linked-fill="path19"
     transform="matrix(1.0008535,0,0,1.0008535,-2.0867571,7.089736e-5)" />
  <path
     d="m 119.55552,0.28539929 -1.67,3.90600001 h 3.283 z m 2.378,5.74600001 -0.693,-1.684 h -3.412 l -0.722,1.684 h -0.198 l 2.548,-5.87400001 h 0.226 l 2.45,5.87400001 z"
     id="path20"
     style="fill:#009ed0"
     inkscape:original-d="M 0,0"
     inkscape:path-effect="#path-effect20"
     transform="matrix(1.0008535,0,0,1.0008535,-2.9930239,7.089736e-5)" />
  <path
     d="m 119.46357,0.24608693 c -0.29159,0.6820134 -0.9905,2.31669917 -1.67,3.90599997 a 0.1,0.1 11.574486 0 0 0.0919,0.1393124 c 0.57679,0 1.14647,0 1.6415,0 0.49503,0 1.06471,0 1.6415,0 a 0.1,0.1 78.780815 0 0 0.0924,-0.138169 c -0.65631,-1.5893008 -1.33136,-3.22398659 -1.613,-3.90599999 z m -4.8e-4,0.0774813 c 0.27349,0.66226222 0.91792,2.22281683 1.55594,3.76783103 -0.5253,0 -1.0398,0 -1.49201,0 -0.45163,0 -0.96538,0 -1.48999,0 0.66041,-1.5446407 1.32736,-3.1045888 1.61044,-3.76668765 z M 122.026,5.9933437 c -0.14971,-0.3637782 -0.39642,-0.9633066 -0.693,-1.684 a 0.1,0.1 78.815928 0 0 -0.0925,-0.061944 c -1.04066,0 -2.206,0 -3.412,0 a 0.09999973,0.10000015 11.603449 0 0 -0.0919,0.060595 c -0.22936,0.5349653 -0.46567,1.0861376 -0.69602,1.623405 0.0506,0 0.0354,0 0.0203,0 0.7121,-1.6416227 1.57271,-3.6256353 2.46125,-5.67400001 -0.0131,0 0.0406,0 0.0937,0 0.81807,1.96136781 1.63409,3.91780581 2.36658,5.67400001 -0.0188,0 -0.0353,0 -0.0489,0 z m -0.0925,0.1380556 c 0.043,0 0.11383,0 0.199,0 a 0.1,0.1 78.679681 0 0 0.0923,-0.138495 c -0.74724,-1.7915658 -1.58403,-3.7977907 -2.45,-5.8740003 a 0.09999951,0.10000004 78.679738 0 0 -0.0923,-0.06150471 c -0.0745,0 -0.15133,0 -0.226,0 a 0.1,0.1 11.72502 0 0 -0.0917,0.06020507 c -0.89778,2.06968644 -1.7677,4.07513474 -2.548,5.87400004 a 0.1,0.1 11.73368 0 0 0.0917,0.1397949 c 0.0606,0 0.12824,0 0.198,0 a 0.1,0.1 11.603414 0 0 0.0919,-0.060595 c 0.22986,-0.5361342 0.46617,-1.0873041 0.69602,-1.6234051 1.11426,0 2.25551,0 3.27909,0 0.28521,0.6930756 0.52211,1.268751 0.6675,1.6220556 z"
     id="path2"
     style="fill:#009ed0;fill-rule:nonzero;stroke:none"
     inkscape:linked-fill="path20"
     inkscape:original-d="m 119.55552,0.28539929 -1.67,3.90600001 h 3.283 z m 2.378,5.74600001 -0.693,-1.684 h -3.412 l -0.722,1.684 h -0.198 l 2.548,-5.87400001 h 0.226 l 2.45,5.87400001 z"
     inkscape:path-effect="#path-effect19"
     transform="matrix(1.0008535,0,0,1.0008535,-2.9930239,7.089736e-5)" />
  <path
     d="m 131.33752,6.0453993 a 4.58,4.58 0 0 1 -1.232,0.155 c -0.467,0 -0.891,-0.085 -1.273,-0.24 a 2.783,2.783 0 0 1 -0.976,-0.666 2.871,2.871 0 0 1 -0.624,-0.99 3.526,3.526 0 0 1 -0.226,-1.231 c 0,-0.44 0.07,-0.85 0.226,-1.233 0.157,-0.381 0.354,-0.707 0.624,-0.97600001 0.268,-0.269 0.594,-0.48 0.962,-0.636 a 3.236,3.236 0 0 1 1.245,-0.228 c 0.397,0 0.765,0.057 1.09,0.185 0.326,0.128 0.623,0.282 0.877,0.496 l -0.127,0.127 a 2.64,2.64 0 0 0 -0.382,-0.284 2.302,2.302 0 0 0 -0.467,-0.197 3.052,3.052 0 0 0 -0.99,-0.17 2.902,2.902 0 0 0 -1.175,0.226 2.72,2.72 0 0 0 -0.906,0.62300001 2.876,2.876 0 0 0 -0.581,0.934 3.033,3.033 0 0 0 -0.198,1.133 c 0,0.395 0.07,0.777 0.199,1.146 0.127,0.353 0.325,0.68 0.58,0.934 a 2.664,2.664 0 0 0 0.92,0.636 3.1,3.1 0 0 0 1.23,0.228 c 0.397,0 0.751,-0.043 1.063,-0.128 a 4.75,4.75 0 0 0 0.85,-0.311 v -2.308 h -1.53 v -0.155 h 1.713 v 2.562 c -0.24,0.14 -0.538,0.255 -0.892,0.368"
     id="path22"
     style="fill:#009ed0"
     inkscape:original-d="M 0,0"
     inkscape:path-effect="#path-effect22"
     transform="matrix(1.0008535,0,0,1.0008535,-4.1306507,7.089736e-5)" />
  <path
     d="m 131.33752,6.0453993 c -0.0423,0.00268 -0.10389,-0.00711 -0.25274,0.00884 -0.14822,0.015881 -0.52387,0.071329 -0.9783,0.057851 -0.38522,-0.00647 -0.80812,-0.069839 -1.23547,-0.2465597 -0.32431,-0.1339965 -0.65234,-0.343222 -0.93682,-0.6446718 -0.24961,-0.2594998 -0.46152,-0.5805007 -0.6014,-0.9538775 -0.13894,-0.3678068 -0.21928,-0.7712702 -0.22184,-1.1939109 -0.001,-0.4172377 0.062,-0.8164813 0.2143,-1.1949019 0.0751,-0.1842936 0.16017,-0.3566812 0.25939,-0.5157508 0.0975,-0.1563648 0.20895,-0.3002539 0.33872,-0.43092899 0.25452,-0.25819408 0.5677,-0.46574376 0.92973,-0.62154769 0.38044,-0.15330588 0.7918,-0.23185277 1.20914,-0.2275219 0.39061,-0.002205 0.74881,0.05147749 1.06367,0.17310359 0.29982,0.11550543 0.56996,0.25135144 0.80381,0.43313034 0.0243,-0.0260029 -0.003,0.00374 -0.031,0.0332194 -0.11086,-0.0924486 -0.22719,-0.17453105 -0.34727,-0.24633051 -0.15815,-0.0864782 -0.31948,-0.15189074 -0.4818,-0.19892243 -0.33348,-0.11498936 -0.67467,-0.16850663 -1.00485,-0.16960177 -0.20921,-0.003442 -0.41346,0.0154631 -0.60896,0.0530649 -0.19549,0.0376018 -0.39219,0.0958148 -0.58579,0.17686617 -0.33507,0.14070095 -0.65301,0.35147407 -0.92471,0.63276721 -0.25149,0.26884787 -0.45697,0.58937497 -0.5963,0.95028897 -0.13935,0.3614743 -0.21232,0.7529017 -0.20717,1.1545058 -0.002,0.3973479 0.0659,0.7869749 0.19671,1.1676033 0.12748,0.3605858 0.32822,0.6990014 0.59179,0.9646818 0.26217,0.2822138 0.58365,0.5073576 0.94175,0.6583679 0.40233,0.166117 0.83212,0.2472351 1.2632,0.2407834 0.4057,0.00217 0.76745,-0.04035 1.08613,-0.1251757 0.303,-0.077041 0.59382,-0.1825391 0.86832,-0.3120482 a 0.10052191,0.09921513 77.592953 0 0 0.0569,-0.090324 c 0.002,-0.7875996 0.003,-1.5586236 0.004,-2.308 a 0.10467285,0.10426721 0.11121569 0 0 -0.10443,-0.1044292 c -0.4892,-0.00114 -0.96449,-0.00199 -1.42265,-0.00249 -1.7e-4,0.090638 -6e-5,0.074578 0,0.058752 0.46937,-5.081e-4 1.00873,-0.00184 1.5036,-0.004 0.003,0.8593753 0.007,1.7049829 0.0133,2.4096746 -0.22826,0.1346566 -0.52472,0.2588276 -0.61394,0.3020101 -0.11455,0.055447 -0.15644,0.096236 -0.18931,0.1154749 0.0347,-0.00308 0.0981,0.00634 0.22201,-0.020973 0.12495,-0.027552 0.43512,-0.1175857 0.71449,-0.2707434 a 0.08987651,0.08383325 76.864261 0 0 0.0438,-0.076283 c 0.006,-0.7144669 0.011,-1.5771548 0.0141,-2.5619984 a 0.1028571,0.10206245 0.22262311 0 0 -0.10238,-0.1023824 c -0.52248,-0.00243 -1.09638,-0.0039 -1.713,-0.00458 a 0.1068346,0.10827803 0.3843017 0 0 -0.10696,0.1069623 c -6e-4,0.048877 -5.8e-4,0.1007203 -7e-5,0.1549999 a 0.10805191,0.10691664 89.697608 0 0 0.10703,0.1070263 c 0.45871,-4.417e-4 0.93505,-0.00125 1.42573,-0.00236 9.7e-4,0.6246791 0.002,1.3745326 0.004,2.1402157 -0.24499,0.1148052 -0.50362,0.2100976 -0.77366,0.2824835 -0.29963,0.083621 -0.64421,0.1289155 -1.03908,0.1310666 -0.40878,0.010226 -0.81636,-0.062085 -1.19908,-0.2154151 -0.33781,-0.1377992 -0.64348,-0.3462093 -0.896,-0.6116357 -0.25074,-0.2466668 -0.44481,-0.5635617 -0.57015,-0.9056851 -0.12985,-0.3649154 -0.19915,-0.739215 -0.20107,-1.1226983 -0.009,-0.386413 0.0576,-0.7633853 0.18883,-1.1126215 0.13081,-0.3480282 0.32606,-0.6581871 0.56627,-0.9183121 0.25904,-0.27165587 0.56422,-0.47619172 0.88677,-0.61263927 0.18676,-0.0787205 0.37671,-0.13521278 0.5656,-0.17154332 0.18889,-0.0363305 0.38624,-0.0543336 0.58894,-0.0505099 0.32018,0.001995 0.64983,0.055548 0.97345,0.16964908 0.15675,0.0478525 0.30948,0.112897 0.4565,0.19697685 0.12763,0.0800291 0.2518,0.17404813 0.36815,0.28073721 a 0.06180335,0.06488892 44.796128 0 0 0.0861,-0.002404 c 0.0432,-0.0404871 0.0871,-0.0814364 0.13134,-0.12266127 a 0.06918804,0.0666437 43.630502 0 0 -0.004,-0.10131117 c -0.25938,-0.221303 -0.56214,-0.38089743 -0.89381,-0.51351342 -0.33506,-0.13434165 -0.71286,-0.19466414 -1.11754,-0.19687732 -0.43769,-0.0091125 -0.87221,0.06900236 -1.27768,0.22771563 -0.38398,0.16041117 -0.72018,0.37694612 -0.99641,0.65147456 -0.14194,0.14002655 -0.26368,0.29425477 -0.36978,0.46082147 -0.10782,0.1692805 -0.19947,0.3512923 -0.2797,0.5438712 -0.16715,0.4058847 -0.2367,0.8316188 -0.23786,1.2711475 1.8e-4,0.4488442 0.0836,0.8777524 0.23026,1.2687022 0.14989,0.4031468 0.37806,0.748555 0.64721,1.0265768 0.30765,0.3239564 0.66347,0.5470241 1.01452,0.6866117 0.45861,0.1827614 0.90939,0.2398855 1.31144,0.233423 0.48304,-0.00353 0.8446,-0.087827 0.99979,-0.1366019 0.13875,-0.043608 0.20122,-0.091398 0.23221,-0.1067118 z"
     id="path3"
     style="fill:#009ed0;fill-rule:nonzero;stroke:none"
     inkscape:linked-fill="path22"
     inkscape:original-d="m 131.33752,6.0453993 a 4.58,4.58 0 0 1 -1.232,0.155 c -0.467,0 -0.891,-0.085 -1.273,-0.24 a 2.783,2.783 0 0 1 -0.976,-0.666 2.871,2.871 0 0 1 -0.624,-0.99 3.526,3.526 0 0 1 -0.226,-1.231 c 0,-0.44 0.07,-0.85 0.226,-1.233 0.157,-0.381 0.354,-0.707 0.624,-0.97600001 0.268,-0.269 0.594,-0.48 0.962,-0.636 a 3.236,3.236 0 0 1 1.245,-0.228 c 0.397,0 0.765,0.057 1.09,0.185 0.326,0.128 0.623,0.282 0.877,0.496 l -0.127,0.127 a 2.64,2.64 0 0 0 -0.382,-0.284 2.302,2.302 0 0 0 -0.467,-0.197 3.052,3.052 0 0 0 -0.99,-0.17 2.902,2.902 0 0 0 -1.175,0.226 2.72,2.72 0 0 0 -0.906,0.62300001 2.876,2.876 0 0 0 -0.581,0.934 3.033,3.033 0 0 0 -0.198,1.133 c 0,0.395 0.07,0.777 0.199,1.146 0.127,0.353 0.325,0.68 0.58,0.934 a 2.664,2.664 0 0 0 0.92,0.636 3.1,3.1 0 0 0 1.23,0.228 c 0.397,0 0.751,-0.043 1.063,-0.128 a 4.75,4.75 0 0 0 0.85,-0.311 v -2.308 h -1.53 v -0.155 h 1.713 v 2.562 c -0.24,0.14 -0.538,0.255 -0.892,0.368"
     inkscape:path-effect="#path-effect21"
     transform="matrix(1.0008535,0,0,1.0008535,-4.1306507,7.089736e-5)" />
  <path
     inkscape:original-d="M 0,0"
     inkscape:path-effect="#path-effect24"
     d="m 140.46956,0.28539929 -1.67,3.90600001 h 3.283 z m 2.378,5.74600001 -0.693,-1.684 h -3.412 l -0.721,1.684 h -0.199 l 2.548,-5.87400001 h 0.226 l 2.45,5.87400001 z"
     id="path24"
     style="fill:#009ed0"
     transform="matrix(1.0008535,0,0,1.0008535,-5.0369165,7.089736e-5)" />
  <path
     d="m 140.37761,0.24608693 c -0.29159,0.6820134 -0.9905,2.31669917 -1.67,3.90599997 a 0.1,0.1 11.574486 0 0 0.092,0.1393124 c 0.57679,0 1.14647,0 1.6415,0 0.49503,0 1.06471,0 1.6415,0 a 0.1,0.1 78.780815 0 0 0.0924,-0.138169 c -0.65631,-1.5893008 -1.33136,-3.22398659 -1.613,-3.90599999 z m -4.8e-4,0.0774813 c 0.27349,0.66226222 0.91792,2.22281683 1.55594,3.76783103 -0.5253,0 -1.0398,0 -1.49201,0 -0.45163,0 -0.96538,0 -1.48999,0 0.66041,-1.5446407 1.32736,-3.1045888 1.61044,-3.76668765 z m 2.56291,5.66977543 c -0.14971,-0.3637782 -0.39642,-0.9633066 -0.693,-1.684 a 0.1,0.1 78.815927 0 0 -0.0925,-0.061944 c -1.04066,0 -2.206,0 -3.412,0 a 0.09999973,0.10000015 11.589076 0 0 -0.0919,0.060641 c -0.22904,0.53495 -0.46501,1.0861061 -0.69504,1.6233589 0.0503,0 0.0348,0 0.0194,0 0.7121,-1.6416227 1.57271,-3.6256353 2.46125,-5.67400001 -0.0131,0 0.0406,0 0.0937,0 0.81807,1.96136781 1.63409,3.91780581 2.36658,5.67400001 -0.0188,0 -0.0353,0 -0.0489,0 z m -0.0925,0.1380556 c 0.043,0 0.11383,0 0.199,0 a 0.1,0.1 78.679674 0 0 0.0923,-0.138495 c -0.74724,-1.7915658 -1.58403,-3.7977907 -2.45,-5.8740003 a 0.09999951,0.10000004 78.679738 0 0 -0.0923,-0.06150471 c -0.0745,0 -0.15133,0 -0.226,0 a 0.1,0.1 11.725023 0 0 -0.0917,0.06020507 c -0.89778,2.06968644 -1.7677,4.07513474 -2.548,5.87400004 a 0.1,0.1 11.814689 0 0 0.0917,0.1397949 c 0.0609,0 0.12888,0 0.199,0 a 0.1,0.1 11.589032 0 0 0.0919,-0.060641 c 0.22954,-0.5361189 0.46551,-1.0872725 0.69504,-1.623359 1.11422,0 2.25547,0 3.27905,0 0.28521,0.6930756 0.52211,1.268751 0.6675,1.6220556 z"
     id="path4"
     style="fill:#009ed0;fill-rule:nonzero;stroke:none"
     inkscape:path-effect="#path-effect23"
     inkscape:original-d="m 140.46956,0.28539929 -1.67,3.90600001 h 3.283 z m 2.378,5.74600001 -0.693,-1.684 h -3.412 l -0.721,1.684 h -0.199 l 2.548,-5.87400001 h 0.226 l 2.45,5.87400001 z"
     inkscape:linked-fill="path24"
     transform="matrix(1.0008535,0,0,1.0008535,-5.0369165,7.089736e-5)" />
  <path
     inkscape:original-d="M 0,0"
     inkscape:path-effect="#path-effect26"
     d="m 106.85979,13.531 v -0.226 l 3.863,-5.4779995 h -3.75 v -0.17 h 3.907 v 0.24 l -3.837,5.4639995 h 3.95 v 0.17 z"
     id="path26"
     style="fill:#009ed0"
     transform="matrix(1.0008535,0,0,1.0008535,-2.0867571,-0.01163406)" />
  <path
     d="m 106.95979,13.631 c 0,-0.04546 0,-0.112874 0,-0.194287 1.1628,-1.648934 2.46763,-3.4992664 3.84472,-5.4520807 a 0.09999989,0.10000107 17.595642 0 0 -0.0817,-0.1576318 c -1.17765,0 -2.40975,0 -3.65,0 0,0.076671 0,0.053287 0,0.03 1.23533,0 2.52358,0 3.707,0 0,-0.034962 0,0.035362 0,0.1083955 -1.24763,1.7766573 -2.53684,3.612528 -3.81884,5.438135 a 0.1,0.1 17.538896 0 0 0.0818,0.157469 c 1.30686,0 2.60645,0 3.85,0 0,-0.07611 0,-0.05271 0,-0.03 -1.70402,0 -3.11382,0 -4.033,0 z m -0.1,0.1 c 0.9371,0 2.38414,0 4.133,0 a 0.1,0.1 0 0 0 0.1,-0.1 c 0,-0.05137 0,-0.10908 0,-0.17 a 0.1,0.10000005 0 0 0 -0.1,-0.1 c -1.2129,0 -2.48062,0 -3.75758,0 1.25173,-1.782506 2.509,-3.5728882 3.72642,-5.3065314 a 0.10000116,0.09999618 62.540064 0 0 0.0182,-0.057468 c 0,-0.084343 0,-0.1656284 0,-0.24 a 0.1,0.1 0 0 0 -0.1,-0.1 c -1.21071,0 -2.53397,0 -3.907,0 a 0.10000051,0.09999998 0 0 0 -0.1,0.1 c 0,0.055527 0,0.1129247 0,0.17 a 0.1,0.1 0 0 0 0.1,0.1 c 1.20643,0 2.40632,0 3.55712,0 -1.34335,1.904961 -2.61574,3.7092895 -3.75184,5.3203695 a 0.1,0.1 62.595445 0 0 -0.0183,0.05763 c 0,0.09563 0,0.174758 0,0.226 z"
     id="path5"
     style="fill:#009ed0;fill-rule:nonzero;stroke:none"
     inkscape:path-effect="#path-effect25"
     inkscape:original-d="m 106.85979,13.631 v -0.226 l 3.863,-5.4779995 h -3.75 v -0.17 h 3.907 v 0.24 l -3.837,5.4639995 h 3.95 v 0.17 z"
     inkscape:linked-fill="path26"
     transform="matrix(1.0008535,0,0,1.0008535,-2.0867571,-0.11171941)" />
  <path
     inkscape:original-d="M 0,0"
     inkscape:path-effect="#path-effect28"
     d="m 119.42852,7.6560005 h 0.184 V 13.531 h -0.184 z"
     id="path28"
     style="fill:#009ed0"
     transform="matrix(1.0008535,0,0,1.0008535,-2.9930239,-0.01163406)" />
  <path
     d="m 119.42852,7.8560005 c 0.0185,0 0.0482,0 0.084,0 0,1.8628617 0,3.9508055 0,5.6749995 0.0742,0 0.0456,0 0.016,0 0,-2.456283 0,-4.7027413 0,-5.7749995 z m -0.1,-0.1 c 0,1.0867929 0,3.3798345 0,5.8749995 a 0.1,0.1 0 0 0 0.1,0.1 c 0.0627,0 0.12941,0 0.184,0 a 0.1,0.1 0 0 0 0.1,-0.1 c 0,-1.743081 0,-3.8740329 0,-5.8749995 a 0.1,0.1 0 0 0 -0.1,-0.1 c -0.0782,0 -0.14996,0 -0.184,0 z"
     id="path6"
     style="fill:#009ed0;fill-rule:nonzero;stroke:none"
     inkscape:path-effect="#path-effect27"
     inkscape:original-d="m 119.42852,7.7560005 h 0.184 V 13.631 h -0.184 z"
     inkscape:linked-fill="path28"
     transform="matrix(1.0008535,0,0,1.0008535,-2.9930239,-0.11171941)" />
  <path
     inkscape:original-d="M 0,0"
     inkscape:path-effect="#path-effect30"
     d="m 131.69052,13.531 -4.203,-5.6339995 h -0.029 V 13.531 h -0.183 V 7.6550005 h 0.254 l 4.218,5.6339995 h 0.028 V 7.6550005 h 0.185 V 13.53 Z"
     id="path30"
     style="fill:#009ed0"
     transform="matrix(1.0008535,0,0,1.0008535,-4.1306507,-0.01163406)" />
  <path
     d="m 131.77067,13.571205 c -0.98974,-1.326723 -2.44563,-3.278294 -4.203,-5.6339994 a 0.10000001,0.1 71.63841 0 0 -0.0802,-0.040205 c -0.009,0 -0.0185,0 -0.029,0 a 0.1,0.1 0 0 0 -0.1,0.1 c 0,1.766666 0,3.6293605 0,5.5339995 0.0725,0 0.0448,0 0.017,0 0,-1.853803 0,-3.796206 0,-5.6759995 -0.0295,0 0.039,0 0.10395,0 1.31056,1.7505212 2.72232,3.6362135 4.188,5.5939305 a 0.10000316,0.09999964 71.588868 0 0 0.08,0.04007 c 0.009,0 0.0185,0 0.028,0 a 0.10000001,0.10000024 0 0 0 0.1,-0.1 c 0,-1.849768 0,-3.7101915 0,-5.5339995 -0.0713,0 -0.0429,0 -0.015,0 0,1.9797992 0,3.9319715 0,5.6753695 -0.0687,2.54e-4 -0.12661,4.69e-4 -0.17037,6.31e-4 z m -0.0798,0.159794 c 0.0636,-2.35e-4 0.15711,-5.82e-4 0.27,-0.001 a 0.1,0.1 89.893897 0 0 0.0996,-0.1 c 0,-1.768529 0,-3.7554911 0,-5.8749995 a 0.1,0.1 0 0 0 -0.1,-0.1 c -0.059,0 -0.12132,0 -0.185,0 a 0.1,0.10000001 0 0 0 -0.1,0.1 c 0,1.8557741 0,3.7504115 0,5.6339995 l 0.1,-0.1 c -0.009,0 -0.0189,0 -0.028,0 l 0.08,0.04007 c -1.47687,-1.972662 -2.89899,-3.8721965 -4.218,-5.6339983 a 0.1,0.1 71.615172 0 0 -0.08,-0.040068 c -0.0794,0 -0.16507,0 -0.254,0 a 0.10000005,0.09999883 0 0 0 -0.1,0.099999 c 0,1.9108695 0,3.8875307 0,5.8759987 a 0.10000001,0.10000198 0 0 0 0.1,0.100002 c 0.0612,0 0.12272,0 0.183,0 a 0.1,0.09999999 0 0 0 0.1,-0.1 c 0,-1.939436 0,-3.8364266 0,-5.6339995 l -0.1,0.1 c 0.0105,0 0.0203,0 0.029,0 l -0.0802,-0.040205 c 1.75737,2.3557046 3.21325,4.3072756 4.203,5.6339996 z"
     id="path7"
     style="fill:#009ed0;fill-rule:nonzero;stroke:none"
     inkscape:path-effect="#path-effect29"
     inkscape:original-d="m 131.69052,13.631 -4.203,-5.6339995 h -0.029 V 13.631 h -0.183 V 7.7550005 h 0.254 l 4.218,5.6339995 h 0.028 V 7.7550005 h 0.185 V 13.63 Z"
     inkscape:linked-fill="path30"
     transform="matrix(1.0008535,0,0,1.0008535,-4.1306507,-0.11171941)" />
  <path
     inkscape:original-d="M 0,0"
     inkscape:path-effect="#path-effect32"
     d="M 138.65806,13.531 V 7.6550005 h 3.425 v 0.17 h -3.242 V 10.401 h 3.044 v 0.17 h -3.044 v 2.79 h 3.37 v 0.169 z"
     id="path32"
     style="fill:#009ed0"
     transform="matrix(1.0008535,0,0,1.0008535,-5.0369165,-0.01163406)" />
  <path
     d="m 138.75806,13.631 c 0,-1.364894 0,-3.36387 0,-5.7759995 0.90315,0 2.02686,0 3.225,0 0,-0.077156 0,-0.05378 0,-0.03 -1.03589,0 -2.09193,0 -3.142,0 a 0.10000014,0.10000087 0 0 0 -0.1,0.1000009 c 0,0.8717312 0,1.7382865 0,2.5759996 a 0.10000061,0.09999949 0 0 0 0.1,0.1 c 1.02859,0 2.02038,0 2.944,0 0,-0.07737 0,-0.05399 0,-0.03 -0.9588,0 -1.94854,0 -2.944,0 a 0.10000102,0.10000012 0 0 0 -0.1,0.1 c 0,0.932767 0,1.871006 0,2.79 a 0.1,0.1 0 0 0 0.1,0.1 c 1.12418,0 2.22452,0 3.27,0 0,-0.07637 0,-0.05331 0,-0.03097 -1.44085,4.06e-4 -2.63519,7.42e-4 -3.45303,9.72e-4 z m -0.1,0.1 c 0.83668,-2.35e-4 2.06741,-5.82e-4 3.553,-10e-4 a 0.1,0.1 89.991937 0 0 0.1,-0.1 c 0,-0.05087 0,-0.10803 0,-0.169 a 0.1,0.1 0 0 0 -0.1,-0.1 c -1.04431,0 -2.14472,0 -3.27,0 0,-0.786159 0,-1.690213 0,-2.59 0.99635,0 1.98613,0 2.944,0 a 0.09999939,0.10000003 0 0 0 0.1,-0.1 c 0,-0.05952 0,-0.116839 0,-0.17 a 0.1,0.1 0 0 0 -0.1,-0.1 c -0.92208,0 -1.91399,0 -2.944,0 0,-0.7056721 0,-1.5380234 0,-2.3759995 1.05091,0 2.10696,0 3.142,0 a 0.1,0.1 0 0 0 0.1,-0.1 c 0,-0.05852 0,-0.1157601 0,-0.17 a 0.1,0.1 0 0 0 -0.1,-0.1 c -1.23563,0 -2.39398,0 -3.425,0 a 0.1,0.1 0 0 0 -0.1,0.1 c 0,2.4568905 0,4.4922885 0,5.8759995 z"
     id="path8"
     style="fill:#009ed0;fill-rule:nonzero;stroke:none"
     inkscape:path-effect="#path-effect31"
     inkscape:original-d="M 138.65806,13.631 V 7.7550005 h 3.425 v 0.17 h -3.242 V 10.501 h 3.044 v 0.17 h -3.044 v 2.79 h 3.37 v 0.169 z"
     inkscape:linked-fill="path32"
     transform="matrix(1.0008535,0,0,1.0008535,-5.0369165,-0.1117194)" />
  <path
     d="M 1.84,2.875 V 1.742 H 8.776 V 0.043 H 0 v 2.831 z"
     id="path9"
     style="fill:#009ed0" />
  <path
     d="M 1.84,7.403 H 8.351 V 5.704 H 1.841 V 4.572 H 0 v 9.06 h 9.058 v -1.7 H 1.84 Z"
     id="path10"
     style="fill:#009ed0" />
  <path
     d="m 0,15.259 h 9.045 v 1.656 H 0 Z"
     id="path11"
     style="fill:#009ed0" />
  <path
     d="M 19.378,0.382 V 13.631 H 18.953 V 0.382 H 14.311 V 0 h 9.71 v 0.382 z"
     id="path12"
     style="fill:#009ed0" />
  <path
     d="m 39.859,13.631 v -6.85 h -9.173 v 6.85 H 30.262 V 0.001 h 0.424 v 6.398 h 9.173 V 0.001 h 0.424 v 13.63 z"
     id="path13"
     style="fill:#009ed0" />
  <path
     d="m 65.167,5.959 h 2.194 a 6.75,6.75 0 0 0 1.245,-0.113 c 0.383,-0.07 0.723,-0.198 1.005,-0.382 0.283,-0.17 0.525,-0.396 0.68,-0.68 0.17,-0.282 0.255,-0.622 0.255,-1.033 0,-0.41 -0.086,-0.75 -0.255,-1.033 A 1.994,1.994 0 0 0 69.626,2.053 2.846,2.846 0 0 0 68.649,1.7 6.265,6.265 0 0 0 67.474,1.6 h -2.335 v 4.36 z m 0,7.672 h -1.91 V 0.001 h 4.372 c 0.652,0 1.275,0.07 1.868,0.198 a 4.788,4.788 0 0 1 1.559,0.651 3.19,3.19 0 0 1 1.047,1.16 c 0.254,0.482 0.382,1.076 0.382,1.77 0,1.005 -0.311,1.811 -0.92,2.42 -0.623,0.623 -1.415,1.005 -2.392,1.175 l 3.808,6.256 H 70.673 L 67.205,7.558 h -2.038 z"
     id="path14"
     style="fill:#009ed0" />
  <path
     d="M 80.85,13.631 H 78.939 V 0.001 h 1.91 z"
     id="path15"
     style="fill:#009ed0" />
  <path
     d="m 90.602,8.606 h 5.11 L 93.164,2.208 Z m -2.038,5.025 h -2.123 l 5.916,-13.63 h 1.727 l 5.86,13.63 h -2.152 l -1.387,-3.354 h -6.468 z"
     id="path16"
     style="fill:#009ed0" />
  <path
     d="M 49.682,3.015 V 1.6 h 6.935 V 0.043 h -8.775 v 2.972 z"
     id="path17"
     style="fill:#009ed0" />
  <path
     d="m 49.682,11.933 v -4.53 h 6.51 V 5.705 h -6.51 V 4.572 h -1.84 v 9.06 h 9.059 v -1.7 z"
     id="path18"
     style="fill:#009ed0" />
</svg>
