<?xml version="1.0" encoding="UTF-8" standalone="no"?>
<svg
   viewBox="0 0 100.1 24.966523"
   version="1.1"
   id="svg19"
   sodipodi:docname="etheria-magazine.svg"
   width="100.1"
   height="24.966524"
   inkscape:version="1.4 (e7c3feb100, 2024-10-09)"
   xmlns:inkscape="http://www.inkscape.org/namespaces/inkscape"
   xmlns:sodipodi="http://sodipodi.sourceforge.net/DTD/sodipodi-0.dtd"
   xmlns="http://www.w3.org/2000/svg"
   xmlns:svg="http://www.w3.org/2000/svg">
  <defs
     id="defs19">
    <inkscape:path-effect
       effect="powerstroke"
       message=""
       id="path-effect37"
       is_visible="true"
       lpeversion="1.3"
       scale_width="0.2"
       interpolator_type="CentripetalCatmullRom"
       interpolator_beta="0.2"
       start_linecap_type="zerowidth"
       end_linecap_type="zerowidth"
       offset_points="7.5,0.5"
       linejoin_type="round"
       miter_limit="4"
       not_jump="false"
       sort_points="true" />
    <inkscape:path-effect
       effect="powerstroke"
       message=""
       id="path-effect33"
       is_visible="true"
       lpeversion="1.3"
       scale_width="0.2"
       interpolator_type="CentripetalCatmullRom"
       interpolator_beta="0"
       start_linecap_type="zerowidth"
       end_linecap_type="zerowidth"
       offset_points="6,0.5"
       linejoin_type="round"
       miter_limit="4"
       not_jump="false"
       sort_points="true" />
    <inkscape:path-effect
       effect="powerstroke"
       message=""
       id="path-effect31"
       is_visible="true"
       lpeversion="1.3"
       scale_width="0.2"
       interpolator_type="CentripetalCatmullRom"
       interpolator_beta="0.2"
       start_linecap_type="zerowidth"
       end_linecap_type="zerowidth"
       offset_points="2,0.5"
       linejoin_type="round"
       miter_limit="4"
       not_jump="false"
       sort_points="true" />
    <inkscape:path-effect
       effect="powerstroke"
       message=""
       id="path-effect28"
       is_visible="true"
       lpeversion="1.3"
       scale_width="0.2"
       interpolator_type="CentripetalCatmullRom"
       interpolator_beta="0.2"
       start_linecap_type="zerowidth"
       end_linecap_type="zerowidth"
       offset_points="7.5,0.5"
       linejoin_type="round"
       miter_limit="4"
       not_jump="false"
       sort_points="true" />
    <inkscape:path-effect
       effect="powerstroke"
       message=""
       id="path-effect25"
       is_visible="true"
       lpeversion="1.3"
       scale_width="0.2"
       interpolator_type="CentripetalCatmullRom"
       interpolator_beta="0.2"
       start_linecap_type="zerowidth"
       end_linecap_type="zerowidth"
       offset_points="7.5,0.5"
       linejoin_type="round"
       miter_limit="4"
       not_jump="false"
       sort_points="true" />
    <inkscape:path-effect
       effect="powerstroke"
       message=""
       id="path-effect22"
       is_visible="true"
       lpeversion="1.3"
       scale_width="0.2"
       interpolator_type="CentripetalCatmullRom"
       interpolator_beta="0.2"
       start_linecap_type="zerowidth"
       end_linecap_type="zerowidth"
       offset_points="7.5,0.5"
       linejoin_type="round"
       miter_limit="4"
       not_jump="false"
       sort_points="true" />
    <inkscape:path-effect
       effect="powerstroke"
       message=""
       id="path-effect1"
       is_visible="true"
       lpeversion="1.3"
       scale_width="0.2"
       interpolator_type="CentripetalCatmullRom"
       interpolator_beta="0.2"
       start_linecap_type="zerowidth"
       end_linecap_type="zerowidth"
       offset_points="7.5,0.5"
       linejoin_type="round"
       miter_limit="4"
       not_jump="false"
       sort_points="true" />
    <inkscape:path-effect
       effect="fill_between_many"
       method="bsplinespiro"
       autoreverse="false"
       close="false"
       join="false"
       linkedpaths="#path1,0,1"
       id="path-effect2"
       is_visible="true"
       lpeversion="0" />
    <inkscape:path-effect
       effect="fill_between_many"
       method="bsplinespiro"
       autoreverse="false"
       close="false"
       join="false"
       linkedpaths="#path2,0,1"
       id="path-effect19"
       is_visible="true"
       lpeversion="0" />
    <inkscape:path-effect
       effect="fill_between_many"
       method="bsplinespiro"
       autoreverse="false"
       close="false"
       join="false"
       linkedpaths="#path3,0,1"
       id="path-effect20"
       is_visible="true"
       lpeversion="0" />
    <inkscape:path-effect
       effect="fill_between_many"
       method="bsplinespiro"
       autoreverse="false"
       close="false"
       join="false"
       linkedpaths="#path4,0,1"
       id="path-effect23"
       is_visible="true"
       lpeversion="0" />
    <inkscape:path-effect
       effect="fill_between_many"
       method="bsplinespiro"
       autoreverse="false"
       close="false"
       join="false"
       linkedpaths="#path5,0,1"
       id="path-effect26"
       is_visible="true"
       lpeversion="0" />
    <inkscape:path-effect
       effect="fill_between_many"
       method="bsplinespiro"
       autoreverse="false"
       close="false"
       join="false"
       linkedpaths="#path6,0,1"
       id="path-effect32"
       is_visible="true"
       lpeversion="0" />
    <inkscape:path-effect
       effect="fill_between_many"
       method="bsplinespiro"
       autoreverse="false"
       close="false"
       join="false"
       linkedpaths="#path7,0,1"
       id="path-effect34"
       is_visible="true"
       lpeversion="0" />
    <inkscape:path-effect
       effect="fill_between_many"
       method="bsplinespiro"
       autoreverse="false"
       close="false"
       join="false"
       linkedpaths="#path8,0,1"
       id="path-effect35"
       is_visible="true"
       lpeversion="0" />
  </defs>
  <sodipodi:namedview
     id="namedview19"
     pagecolor="#ffffff"
     bordercolor="#000000"
     borderopacity="0.25"
     inkscape:showpageshadow="2"
     inkscape:pageopacity="0.0"
     inkscape:pagecheckerboard="0"
     inkscape:deskcolor="#d1d1d1"
     inkscape:zoom="5.291082"
     inkscape:cx="3.7799452"
     inkscape:cy="0.75598904"
     inkscape:window-width="1506"
     inkscape:window-height="873"
     inkscape:window-x="0"
     inkscape:window-y="0"
     inkscape:window-maximized="1"
     inkscape:current-layer="svg19" />
  <path
     inkscape:original-d="M 0,0"
     inkscape:path-effect="#path-effect2"
     d="M 5.577,24.781 V 19.119 H 5.548 l -2.59,5.662 H 2.802 L 0.212,19.119 H 0.183 v 5.662 H 0 v -5.876 h 0.326 l 2.547,5.605 2.548,-5.605 h 0.325 v 5.875 z"
     id="path19"
     style="fill:#009ed0"
     transform="translate(0.1)" />
  <path
     d="m 5.677,24.781 c 0,-1.392972 0,-3.334265 0,-5.662 a 0.1,0.1 0 0 0 -0.1,-0.1 c -0.00872,0 -0.018491,0 -0.029,0 a 0.1,0.1 12.292069 0 0 -0.090937,0.0584 c -0.811642,1.774331 -1.6723092,3.655836 -2.5632848,5.603598 0.034133,0 0.00347,0 -0.027556,0 C 2.0172612,22.825086 1.1581175,20.946912 0.30293738,19.077402 A 0.1,0.1 77.709479 0 0 0.212,19.019 c -0.009769,0 -0.0194917,0 -0.029,0 a 0.1,0.10000079 0 0 0 -0.1,0.100001 c 0,1.945929 0,3.845869 0,5.661998 l 0.10000004,-0.1 c -0.0313339,0 -0.0618959,0 -0.09150004,0 -0.02960417,0 -0.06016617,0 -0.09150004413245,0 L 0.1,24.780999 c 0,-1.85365 0,-3.791428 0,-5.775999 -0.01403077,0 0.0734975,0 0.16160107,0 0.84100513,1.85074 1.68576053,3.709732 2.52035783,5.54637 a 0.10000002,0.09999998 45.004242 0 0 0.1820761,1.4e-5 C 3.8201715,22.668085 4.6656232,20.808291 5.4853885,19.005 c 0.01266,0 0.087916,0 0.1606115,0 0,1.989051 0,3.934923 0,5.67559 -0.026528,1.57e-4 -0.049896,2.95e-4 -0.069592,4.12e-4 z m -0.099408,0.1 c 0.041578,-2.46e-4 0.099521,-5.89e-4 0.169,-0.001 A 0.1,0.1 89.830488 0 0 5.846,24.78 c 0,-1.765876 0,-3.746091 0,-5.875 a 0.1,0.1 0 0 0 -0.1,-0.1 c -0.1028646,0 -0.2120045,0 -0.325,0 a 0.1,0.1 12.223078 0 0 -0.091035,0.05862 C 4.530934,20.621296 3.7073116,22.433072 2.8730179,24.268321 2.0592336,22.477485 1.2362879,20.666487 0.4170411,18.863629 A 0.1,0.1 77.781103 0 0 0.326,18.805 c -0.10981617,0 -0.21911309,0 -0.326000045385138,0 A 0.09999995,0.10000082 0 0 0 -0.1,18.905001 c 0,2.019477 0,3.991226 0,5.875998 A 0.09999996,0.10000142 0 0 0 -4.4132449e-8,24.881 C 0.03133383,24.881 0.06189583,24.881 0.0915,24.881 c 0.02960417,0 0.06016617,0 0.09150004,0 a 0.09999996,0.10000137 0 0 0 0.1,-0.100001 c 0,-1.816129 0,-3.716069 0,-5.661998 l -0.1,0.1 c 0.009508,0 0.0192311,0 0.029,0 l -0.0909374,-0.0584 c 0.86415156,1.889122 1.73235018,3.787091 2.58999998,5.662 A 0.10000004,0.1 77.709474 0 0 2.802,24.881 c 0.052985,0 0.1053009,0 0.156,0 a 0.1,0.1 12.290394 0 0 0.090937,-0.0584 c 0.9004874,-1.968556 1.7702486,-3.869941 2.59,-5.662 L 5.548,19.219 c 0.010509,0 0.020283,0 0.029,0 l -0.1,-0.1 c 0,2.327735 0,4.269028 0,5.662 z"
     id="path1"
     style="fill:#009ed0;fill-rule:nonzero;stroke:none"
     inkscape:path-effect="#path-effect1"
     inkscape:original-d="M 5.577,24.781 V 19.119 H 5.548 l -2.59,5.662 H 2.802 L 0.212,19.119 H 0.183 v 5.662 H 0 v -5.876 h 0.326 l 2.547,5.605 2.548,-5.605 h 0.325 v 5.875 z"
     inkscape:linked-fill="path19"
     transform="translate(0.1)" />
  <path
     inkscape:original-d="M 0,0"
     inkscape:path-effect="#path-effect19"
     d="m 17.721,19.035 -1.67,3.906 h 3.283 z m 2.378,5.746 -0.693,-1.684 h -3.412 l -0.722,1.684 h -0.198 l 2.548,-5.874 h 0.226 l 2.45,5.874 z"
     id="path20"
     style="fill:#009ed0"
     transform="translate(0.1)" />
  <path
     d="m 17.721,19.035 z m 0,0 z m 2.470476,5.707944 c -0.151564,-0.368303 -0.39707,-0.964886 -0.693,-1.684 A 0.1,0.1 78.815916 0 0 19.406,22.997 c -1.037276,0 -2.200379,0 -3.411999,0 a 0.10000139,0.09999994 11.603238 0 0 -0.09191,0.06059 c -0.227728,0.531156 -0.463556,1.081203 -0.69602,1.623405 0.05065,0 0.03543,0 0.02031,0 0.426232,-0.982607 0.833255,-1.920932 1.213361,-2.797205 0.400703,-0.923757 0.819317,-1.888803 1.247884,-2.876795 -0.01353,0 0.04019,0 0.09373,0 0.813713,1.95092 1.63145,3.911486 2.366581,5.674 -0.01894,0 -0.03542,0 -0.04894,0 z M 20.099,24.881 c 0.04233,0 0.11358,0 0.199,0 a 0.1,0.1 78.67968 0 0 0.09229,-0.138495 c -0.749946,-1.798034 -1.588582,-3.808707 -2.45,-5.874 A 0.09999997,0.1 78.679684 0 0 17.848,18.807 c -0.07517,0 -0.152217,0 -0.226,0 a 0.10000011,0.09999858 11.724846 0 0 -0.09174,0.0602 c -0.437678,1.008994 -0.865162,1.994489 -1.274001,2.937001 -0.398094,0.917741 -0.825712,1.903546 -1.274,2.937 A 0.1,0.1 11.730248 0 0 15.074,24.881 c 0.06219,0 0.129492,0 0.198,0 a 0.09999997,0.10000019 11.603426 0 0 0.09191,-0.06059 c 0.232034,-0.541199 0.467854,-1.091228 0.69602,-1.623405 1.119679,0 2.258829,0 3.279087,0 0.284529,0.69141 0.520318,1.26438 0.667508,1.622056 z"
     id="path2"
     style="fill:#009ed0;fill-rule:nonzero;stroke:none"
     inkscape:path-effect="#path-effect1"
     inkscape:original-d="m 17.721,19.035 -1.67,3.906 h 3.283 z m 2.378,5.746 -0.693,-1.684 h -3.412 l -0.722,1.684 h -0.198 l 2.548,-5.874 h 0.226 l 2.45,5.874 z"
     inkscape:linked-fill="path20"
     transform="translate(0.1)" />
  <path
     inkscape:original-d="M 0,0"
     inkscape:path-effect="#path-effect20"
     d="m 33.503,24.795 a 4.58,4.58 0 0 1 -1.232,0.155 c -0.467,0 -0.891,-0.085 -1.273,-0.24 a 2.783,2.783 0 0 1 -0.976,-0.666 2.871,2.871 0 0 1 -0.624,-0.99 3.526,3.526 0 0 1 -0.226,-1.231 c 0,-0.44 0.07,-0.85 0.226,-1.233 0.157,-0.381 0.354,-0.707 0.624,-0.976 0.268,-0.269 0.594,-0.48 0.962,-0.636 a 3.236,3.236 0 0 1 1.245,-0.228 c 0.397,0 0.765,0.057 1.09,0.185 0.326,0.128 0.623,0.282 0.877,0.496 l -0.127,0.127 a 2.64,2.64 0 0 0 -0.382,-0.284 2.302,2.302 0 0 0 -0.467,-0.197 3.052,3.052 0 0 0 -0.99,-0.17 2.902,2.902 0 0 0 -1.175,0.226 2.72,2.72 0 0 0 -0.906,0.623 2.876,2.876 0 0 0 -0.581,0.934 3.033,3.033 0 0 0 -0.198,1.133 c 0,0.395 0.07,0.777 0.199,1.146 0.127,0.353 0.325,0.68 0.58,0.934 a 2.664,2.664 0 0 0 0.92,0.636 3.1,3.1 0 0 0 1.23,0.228 c 0.397,0 0.751,-0.043 1.063,-0.128 a 4.75,4.75 0 0 0 0.85,-0.311 V 22.02 h -1.53 v -0.155 h 1.713 v 2.562 c -0.24,0.14 -0.538,0.255 -0.892,0.368"
     id="path21"
     style="fill:#009ed0"
     transform="translate(0.1)" />
  <path
     d="m 33.503,24.795 c -0.31257,0.07996 -0.733541,0.151187 -1.231824,0.138776 -0.421273,-0.0053 -0.847506,-0.08065 -1.260482,-0.255061 -0.340863,-0.143928 -0.671433,-0.36483 -0.952036,-0.669423 -0.25492,-0.271527 -0.463844,-0.601542 -0.599162,-0.97824 -0.137217,-0.377643 -0.211503,-0.786239 -0.208733,-1.2083 0.0039,-0.42346 0.07363,-0.823296 0.230082,-1.199008 0.07772,-0.184555 0.165122,-0.356089 0.266087,-0.513736 0.09986,-0.155925 0.213052,-0.298362 0.343737,-0.427084 0.129638,-0.128646 0.273303,-0.243757 0.429776,-0.345746 0.150019,-0.09778 0.317409,-0.187149 0.503311,-0.265395 0.358895,-0.141464 0.767566,-0.225251 1.203614,-0.21811 0.371986,2.75e-4 0.731332,0.05116 1.053615,0.17785 0.273544,0.107211 0.533398,0.23553 0.762359,0.408889 0.06011,-0.06151 0.03984,-0.0408 0.01935,-0.01982 -0.100969,-0.08317 -0.209357,-0.160224 -0.324775,-0.229819 -0.155795,-0.08594 -0.319197,-0.154208 -0.491104,-0.203989 -0.320757,-0.110609 -0.665441,-0.169694 -1.016384,-0.169957 -0.41116,-0.0059 -0.823464,0.07359 -1.208665,0.237051 -0.349695,0.149013 -0.666983,0.368233 -0.931283,0.645956 -0.258084,0.28001 -0.459585,0.606549 -0.593596,0.963072 -0.139499,0.371233 -0.206531,0.765452 -0.197703,1.161355 0.0018,0.403151 0.07547,0.792432 0.20815,1.166302 0.13251,0.362781 0.337417,0.696257 0.599585,0.95469 0.266066,0.280282 0.588221,0.498937 0.941473,0.643413 0.402371,0.16157 0.828491,0.236505 1.251559,0.226095 0.405065,-0.002 0.761727,-0.04867 1.073,-0.135569 0.299558,-0.08035 0.585451,-0.188317 0.854351,-0.319202 a 0.03526843,0.03587095 76.734465 0 0 0.02016,-0.03198 c -0.0021,-0.786862 -0.0042,-1.557146 -0.0062,-2.308001 A 0.02929156,0.02909333 89.805499 0 0 34.212,21.990787 c -0.517271,0.0021 -1.020632,0.0042 -1.507964,0.0062 -9.92e-4,-0.02463 -0.0028,-0.0708 -0.0046,-0.115245 0.580372,-0.0021 1.149136,-0.0041 1.684884,-0.006 0.0021,0.918584 0.004,1.772004 0.0057,2.55125 -0.26358,0.15325 -0.593666,0.273123 -0.887021,0.368 0.293541,-0.09247 0.625833,-0.209322 0.894509,-0.363699 0.0041,-0.786585 0.0061,-1.643623 0.0082,-2.566299 A 0.01075008,0.01069045 0.16574564 0 0 34.395,21.854287 c -0.538869,-0.0019 -1.111223,-0.0039 -1.713,-0.0061 a 0.01668821,0.01745348 1.2840559 0 0 -0.01676,0.01676 c -0.002,0.04955 -0.004,0.101313 -0.0062,0.155 a 0.0230362,0.02207174 1.2243965 0 0 0.02296,0.02296 c 0.484996,0.002 0.98593,0.004 1.500708,0.0061 -0.0019,0.714571 -0.004,1.477294 -0.0061,2.256306 -0.260763,0.121031 -0.53672,0.220122 -0.825124,0.293298 -0.304307,0.0808 -0.653446,0.122585 -1.05248,0.120536 -0.411271,0.0062 -0.822902,-0.07047 -1.209735,-0.230037 C 30.751801,24.347018 30.4454,24.134112 30.192451,23.862159 29.94568,23.6136 29.753475,23.29433 29.630471,22.946884 29.505964,22.585085 29.439028,22.210341 29.440829,21.823 c -0.0049,-0.379153 0.06251,-0.754087 0.198294,-1.105922 0.130225,-0.336923 0.323913,-0.644253 0.569289,-0.905853 0.250383,-0.258497 0.550591,-0.461977 0.879918,-0.599138 0.364116,-0.151291 0.752685,-0.223127 1.140081,-0.214923 0.331935,0.003 0.655932,0.06122 0.960612,0.168712 0.161868,0.04952 0.311307,0.114402 0.450387,0.193301 0.129168,0.08037 0.25135,0.173063 0.36265,0.273687 a 0.09982512,0.10192773 43.997862 0 0 0.137952,-0.0039 c 0.04394,-0.04272 0.08683,-0.0846 0.128502,-0.125498 a 0.10270095,0.1016655 42.847735 0 0 -0.0064,-0.15094 c -0.271958,-0.229889 -0.585459,-0.388392 -0.905161,-0.514137 -0.352858,-0.139207 -0.739644,-0.192385 -1.127915,-0.192123 -0.463357,-0.007 -0.898723,0.08359 -1.282589,0.237013 -0.198597,0.08472 -0.37621,0.180891 -0.535855,0.286745 -0.166518,0.110412 -0.319657,0.235447 -0.45748,0.375259 -0.140226,0.141187 -0.260331,0.296609 -0.364757,0.46466 -0.105466,0.169726 -0.194896,0.352272 -0.273024,0.545928 -0.160883,0.403381 -0.225975,0.826988 -0.222057,1.267081 0.0055,0.441606 0.09219,0.865649 0.243332,1.254122 0.151022,0.390632 0.37794,0.728352 0.649107,1.001935 0.298364,0.306921 0.646434,0.524997 0.999648,0.662235 0.426517,0.166226 0.861404,0.230211 1.285676,0.224933 0.501341,-0.0016 0.921694,-0.08474 1.232,-0.171225 z"
     id="path3"
     style="fill:#009ed0;fill-rule:nonzero;stroke:none"
     inkscape:path-effect="#path-effect22"
     inkscape:original-d="m 33.503,24.795 a 4.58,4.58 0 0 1 -1.232,0.155 c -0.467,0 -0.891,-0.085 -1.273,-0.24 a 2.783,2.783 0 0 1 -0.976,-0.666 2.871,2.871 0 0 1 -0.624,-0.99 3.526,3.526 0 0 1 -0.226,-1.231 c 0,-0.44 0.07,-0.85 0.226,-1.233 0.157,-0.381 0.354,-0.707 0.624,-0.976 0.268,-0.269 0.594,-0.48 0.962,-0.636 a 3.236,3.236 0 0 1 1.245,-0.228 c 0.397,0 0.765,0.057 1.09,0.185 0.326,0.128 0.623,0.282 0.877,0.496 l -0.127,0.127 a 2.64,2.64 0 0 0 -0.382,-0.284 2.302,2.302 0 0 0 -0.467,-0.197 3.052,3.052 0 0 0 -0.99,-0.17 2.902,2.902 0 0 0 -1.175,0.226 2.72,2.72 0 0 0 -0.906,0.623 2.876,2.876 0 0 0 -0.581,0.934 3.033,3.033 0 0 0 -0.198,1.133 c 0,0.395 0.07,0.777 0.199,1.146 0.127,0.353 0.325,0.68 0.58,0.934 a 2.664,2.664 0 0 0 0.92,0.636 3.1,3.1 0 0 0 1.23,0.228 c 0.397,0 0.751,-0.043 1.063,-0.128 a 4.75,4.75 0 0 0 0.85,-0.311 V 22.02 h -1.53 v -0.155 h 1.713 v 2.562 c -0.24,0.14 -0.538,0.255 -0.892,0.368"
     inkscape:linked-fill="path21"
     transform="translate(0.1)" />
  <path
     inkscape:original-d="M 0,0"
     inkscape:path-effect="#path-effect23"
     d="m 46.256,19.035 -1.67,3.906 h 3.283 z m 2.378,5.746 -0.693,-1.684 h -3.412 l -0.721,1.684 h -0.199 l 2.548,-5.874 h 0.226 l 2.45,5.874 z"
     id="path23"
     style="fill:#009ed0"
     transform="translate(0.1)" />
  <path
     d="m 46.256,19.035 z m 0,0 z m 2.470476,5.707944 c -0.151564,-0.368303 -0.39707,-0.964886 -0.693,-1.684 A 0.1,0.1 78.815923 0 0 47.941,22.997 c -1.037276,0 -2.200379,0 -3.411999,0 a 0.10000139,0.09999994 11.588865 0 0 -0.09193,0.06064 c -0.227406,0.531141 -0.462901,1.081172 -0.695036,1.623359 0.05035,0 0.03479,0 0.01935,0 0.426232,-0.982607 0.833255,-1.920932 1.213361,-2.797205 0.400703,-0.923757 0.819317,-1.888803 1.247884,-2.876795 -0.01353,0 0.04019,0 0.09374,0 0.813713,1.95092 1.63145,3.911486 2.366581,5.674 -0.01895,0 -0.03542,0 -0.04894,0 z M 48.634,24.881 c 0.04233,0 0.11358,0 0.199,0 a 0.1,0.1 78.67968 0 0 0.09229,-0.138495 c -0.749946,-1.798034 -1.588582,-3.808707 -2.45,-5.874 A 0.09999997,0.1 78.679684 0 0 46.383,18.807 c -0.07517,0 -0.152217,0 -0.226,0 a 0.10000011,0.09999858 11.724846 0 0 -0.09174,0.0602 c -0.437678,1.008994 -0.865162,1.994489 -1.274001,2.937001 -0.398094,0.917741 -0.825712,1.903546 -1.274,2.937 A 0.1,0.1 11.731148 0 0 43.609,24.881 c 0.0625,0 0.130146,0 0.199,0 a 0.09999997,0.10000019 11.589052 0 0 0.09193,-0.06064 c 0.231706,-0.541183 0.467192,-1.091196 0.695036,-1.623359 1.119643,0 2.258793,0 3.279051,0 0.284529,0.69141 0.520318,1.26438 0.667508,1.622056 z"
     id="path4"
     style="fill:#009ed0;fill-rule:nonzero;stroke:none"
     inkscape:path-effect="#path-effect25"
     inkscape:original-d="m 46.256,19.035 -1.67,3.906 h 3.283 z m 2.378,5.746 -0.693,-1.684 h -3.412 l -0.721,1.684 h -0.199 l 2.548,-5.874 h 0.226 l 2.45,5.874 z"
     inkscape:linked-fill="path23"
     transform="translate(0.1)" />
  <path
     inkscape:original-d="M 0,0"
     inkscape:path-effect="#path-effect26"
     d="m 57.707,24.781 v -0.226 l 3.863,-5.478 h -3.75 v -0.17 h 3.907 v 0.24 l -3.837,5.464 h 3.95 v 0.17 z"
     id="path26"
     style="fill:#009ed0"
     transform="translate(0.1)" />
  <path
     d="m 57.807,24.781 c 0,-0.04696 0,-0.113715 0,-0.194287 1.155522,-1.63861 2.45477,-3.481032 3.844724,-5.452083 A 0.1,0.1 17.596134 0 0 61.57,18.977 c -1.162295,0 -2.389928,0 -3.65,0 0,0.07687 0,0.0535 0,0.03 1.17928,0 2.458086,0 3.707,0 0,-0.0284 0,0.04156 0,0.108395 -1.384034,1.970905 -2.674904,3.809141 -3.818837,5.438136 A 0.1,0.1 17.538977 0 0 57.89,24.711 c 0.718903,0 1.381435,0 1.975,0 0.630326,0 1.257957,0 1.875,0 0,-0.0762 0,-0.05279 0,-0.03 -1.757692,0 -3.194338,0 -4.033,0 z m -0.1,0.1 c 0.854512,0 2.329825,0 4.133,0 a 0.1,0.1 0 0 0 0.1,-0.1 c 0,-0.05151 0,-0.10952 0,-0.17 a 0.1,0.10000003 0 0 0 -0.1,-0.1 c -0.649176,0 -1.310591,0 -1.975,0 -0.54023,0 -1.13759,0 -1.782583,0 1.121342,-1.596823 2.379956,-3.389127 3.726419,-5.306529 A 0.09999685,0.10001165 62.535426 0 0 61.827,19.147 c 0,-0.07626 0,-0.157025 0,-0.24 a 0.10000003,0.1 0 0 0 -0.1,-0.1 c -1.280608,0 -2.593554,0 -3.907,0 a 0.1,0.1 0 0 0 -0.1,0.1 c 0,0.05711 0,0.114233 0,0.17 a 0.1,0.1 0 0 0 0.1,0.1 c 1.225537,0 2.421292,0 3.557118,0 -1.355391,1.922038 -2.622566,3.71898 -3.751842,5.32037 A 0.10000001,0.09999997 62.595454 0 0 57.607,24.555 c 0,0.09481 0,0.173009 0,0.226 z"
     id="path5"
     style="fill:#009ed0;fill-rule:nonzero;stroke:none"
     inkscape:path-effect="#path-effect28"
     inkscape:original-d="m 57.707,24.781 v -0.226 l 3.863,-5.478 h -3.75 v -0.17 h 3.907 v 0.24 l -3.837,5.464 h 3.95 v 0.17 z"
     inkscape:linked-fill="path26"
     transform="translate(0.1)" />
  <path
     inkscape:original-d="M 0,0"
     inkscape:path-effect="#path-effect32"
     d="m 71.352,18.906 h 0.184 v 5.875 h -0.184 z"
     id="path32"
     style="fill:#009ed0"
     transform="translate(0.1)" />
  <path
     d="m 71.352,19.006 c 0.01851,0 0.0482,0 0.084,0 0,1.862862 0,3.950806 0,5.675 0.07415,0 0.04558,0 0.016,0 0,-2.456283 0,-4.702742 0,-5.775 z m -0.1,-0.1 c 0,1.086793 0,3.379835 0,5.875 a 0.1,0.1 0 0 0 0.1,0.1 c 0.06267,0 0.129408,0 0.184,0 a 0.1,0.1 0 0 0 0.1,-0.1 c 0,-1.743081 0,-3.874033 0,-5.875 a 0.1,0.1 0 0 0 -0.1,-0.1 c -0.07815,0 -0.149963,0 -0.184,0 z"
     id="path6"
     style="fill:#009ed0;fill-rule:nonzero;stroke:none"
     inkscape:path-effect="#path-effect31"
     inkscape:original-d="m 71.352,18.906 h 0.184 v 5.875 h -0.184 z"
     inkscape:linked-fill="path32"
     transform="translate(0.1)" />
  <path
     inkscape:original-d="M 0,0"
     inkscape:path-effect="#path-effect34"
     d="m 86.001,24.781 -4.203,-5.634 h -0.029 v 5.634 h -0.183 v -5.876 h 0.254 l 4.218,5.634 h 0.028 v -5.634 h 0.185 v 5.875 z"
     id="path34"
     style="fill:#009ed0"
     transform="translate(0.1)" />
  <path
     d="m 86.081153,24.721205 c -0.989744,-1.326724 -2.445628,-3.278295 -4.203,-5.634 A 0.10000001,0.1 71.638411 0 0 81.798,19.047 c -0.0087,0 -0.01854,0 -0.029,0 a 0.1,0.1 0 0 0 -0.1,0.1 c 0,1.766666 0,3.629361 0,5.534 0.07254,0 0.04483,0 0.017,0 0,-1.853803 0,-3.796206 0,-5.676 -0.02946,0 0.03901,0 0.103947,0 1.31056,1.750521 2.72232,3.636214 4.188001,5.593931 A 0.10000316,0.09999964 71.588869 0 0 86.058,24.639 c 0.0091,0 0.01852,0 0.028,0 a 0.10000001,0.10000024 0 0 0 0.1,-0.1 c 0,-1.849768 0,-3.710192 0,-5.534 -0.07133,0 -0.04294,0 -0.015,0 0,1.979799 0,3.931972 0,5.67537 -0.06867,2.54e-4 -0.126614,4.69e-4 -0.17037,6.31e-4 z m -0.07978,0.159794 c 0.06358,-2.35e-4 0.157107,-5.82e-4 0.27,-10e-4 a 0.1,0.1 89.893897 0 0 0.09963,-0.1 c 0,-1.768529 0,-3.755491 0,-5.875 a 0.1,0.1 0 0 0 -0.1,-0.1 c -0.05903,0 -0.121316,0 -0.185,0 a 0.1,0.10000001 0 0 0 -0.1,0.1 c 0,1.855774 0,3.750412 0,5.634 l 0.1,-0.1 c -0.0095,0 -0.01889,0 -0.028,0 l 0.08005,0.04007 C 84.66118,22.506405 83.239057,20.60687 81.920051,18.845068 A 0.1,0.1 71.616789 0 0 81.84,18.805 c -0.07943,0 -0.165066,0 -0.254,0 a 0.10000005,0.09999883 0 0 0 -0.1,0.1 c 0,1.910869 0,3.887531 0,5.875999 a 0.10000001,0.10000198 0 0 0 0.1,0.100002 c 0.06118,0 0.122722,0 0.183,0 a 0.1,0.09999999 0 0 0 0.1,-0.1 c 0,-1.939437 0,-3.836427 0,-5.634 l -0.1,0.1 c 0.01046,0 0.02027,0 0.029,0 l -0.08015,-0.04021 c 1.757371,2.355705 3.213255,4.307276 4.203,5.634 z"
     id="path7"
     style="fill:#009ed0;fill-rule:nonzero;stroke:none"
     inkscape:path-effect="#path-effect33"
     inkscape:original-d="m 86.001,24.781 -4.203,-5.634 h -0.029 v 5.634 h -0.183 v -5.876 h 0.254 l 4.218,5.634 h 0.028 v -5.634 h 0.185 v 5.875 z"
     inkscape:linked-fill="path34"
     transform="translate(0.1)" />
  <path
     inkscape:original-d="M 0,0"
     inkscape:path-effect="#path-effect35"
     d="m 96.306,24.781 v -5.876 h 3.425 v 0.17 h -3.242 v 2.576 h 3.044 v 0.17 h -3.044 v 2.79 h 3.37 v 0.169 z"
     id="path35"
     style="fill:#009ed0"
     transform="translate(0.1)" />
  <path
     d="m 96.406,24.781 c 0,-1.392814 0,-3.380954 0,-5.776 0.901511,0 2.023173,0 3.225,0 0,-0.0772 0,-0.05383 0,-0.03 -1.027459,0 -2.081831,0 -3.142,0 a 0.10000001,0.10000113 0 0 0 -0.1,0.100001 c 0,0.859814 0,1.724428 0,2.575999 a 0.09999999,0.10000001 0 0 0 0.1,0.1 c 1.003636,0 1.991941,0 2.944,0 0,-0.07622 0,-0.05285 0,-0.03 -0.497288,0 -0.972763,0 -1.422,0 -0.498347,0 -1.007227,0 -1.522,0 a 0.09999994,0.10000006 0 0 0 -0.1,0.1 c 0,0.919976 0,1.860486 0,2.79 a 0.1,0.1 0 0 0 0.1,0.1 c 1.115564,0 2.218016,0 3.27,0 0,-0.07641 0,-0.05335 0,-0.03097 -1.457693,4.1e-4 -2.660914,7.49e-4 -3.453028,9.72e-4 z m -0.09997,0.1 c 0.810151,-2.28e-4 2.050345,-5.77e-4 3.553,-0.001 a 0.1,0.1 89.991937 0 0 0.09997,-0.1 c 0,-0.05095 0,-0.108248 0,-0.169 a 0.10000012,0.09999999 0 0 0 -0.1,-0.1 c -1.050677,0 -2.153198,0 -3.27,0 0,-0.795862 0,-1.701938 0,-2.59 0.480682,0 0.955947,0 1.422,0 0.479261,0 0.988386,0 1.522,0 a 0.1,0.1 0 0 0 0.1,-0.1 c 0,-0.05292 0,-0.110142 0,-0.17 a 0.1,0.10000007 0 0 0 -0.1,-0.1 c -0.951229,0 -1.939572,0 -2.944,0 0,-0.718565 0,-1.54918 0,-2.376 1.060868,0 2.115261,0 3.142,0 a 0.1,0.1 0 0 0 0.1,-0.1 c 0,-0.05889 0,-0.116037 0,-0.17 a 0.1,0.1 0 0 0 -0.1,-0.1 c -1.23963,0 -2.395762,0 -3.425,0 a 0.1,0.1 0 0 0 -0.1,0.1 c 0,2.439721 0,4.463847 0,5.876 z"
     id="path8"
     style="fill:#009ed0;fill-rule:nonzero;stroke:none"
     inkscape:path-effect="#path-effect37"
     inkscape:original-d="m 96.306,24.781 v -5.876 h 3.425 v 0.17 h -3.242 v 2.576 h 3.044 v 0.17 h -3.044 v 2.79 h 3.37 v 0.169 z"
     inkscape:linked-fill="path35"
     transform="translate(0.1)" />
  <path
     d="M 1.996,2.875 V 1.742 H 8.932 V 0.043 H 0.156 v 2.831 z"
     id="path9"
     style="fill:#009ed0" />
  <path
     d="M 1.996,7.403 H 8.507 V 5.704 H 1.997 V 4.572 H 0.156 v 9.06 h 9.058 v -1.7 H 1.996 Z"
     id="path10"
     style="fill:#009ed0" />
  <path
     d="m 0.156,15.259 h 9.045 v 1.656 H 0.156 Z"
     id="path11"
     style="fill:#009ed0" />
  <path
     d="M 19.534,0.382 V 13.631 H 19.109 V 0.382 H 14.467 V 0 h 9.71 v 0.382 z"
     id="path12"
     style="fill:#009ed0" />
  <path
     d="m 40.015,13.631 v -6.85 h -9.173 v 6.85 H 30.418 V 0.001 h 0.424 v 6.398 h 9.173 V 0.001 h 0.424 v 13.63 z"
     id="path13"
     style="fill:#009ed0" />
  <path
     d="m 65.323,5.959 h 2.194 a 6.75,6.75 0 0 0 1.245,-0.113 c 0.383,-0.07 0.723,-0.198 1.005,-0.382 0.283,-0.17 0.525,-0.396 0.68,-0.68 0.17,-0.282 0.255,-0.622 0.255,-1.033 0,-0.41 -0.086,-0.75 -0.255,-1.033 A 1.994,1.994 0 0 0 69.782,2.053 2.846,2.846 0 0 0 68.805,1.7 6.265,6.265 0 0 0 67.63,1.6 h -2.335 v 4.36 z m 0,7.672 h -1.91 V 0.001 h 4.372 c 0.652,0 1.275,0.07 1.868,0.198 a 4.788,4.788 0 0 1 1.559,0.651 3.19,3.19 0 0 1 1.047,1.16 c 0.254,0.482 0.382,1.076 0.382,1.77 0,1.005 -0.311,1.811 -0.92,2.42 -0.623,0.623 -1.415,1.005 -2.392,1.175 l 3.808,6.256 H 70.829 L 67.361,7.558 h -2.038 z"
     id="path14"
     style="fill:#009ed0" />
  <path
     d="M 81.006,13.631 H 79.095 V 0.001 h 1.91 z"
     id="path15"
     style="fill:#009ed0" />
  <path
     d="m 90.758,8.606 h 5.11 L 93.32,2.208 Z m -2.038,5.025 h -2.123 l 5.916,-13.63 h 1.727 l 5.86,13.63 h -2.152 l -1.387,-3.354 h -6.468 z"
     id="path16"
     style="fill:#009ed0" />
  <path
     d="M 49.838,3.015 V 1.6 h 6.935 V 0.043 h -8.775 v 2.972 z"
     id="path17"
     style="fill:#009ed0" />
  <path
     d="m 49.838,11.933 v -4.53 h 6.51 V 5.705 h -6.51 V 4.572 h -1.84 v 9.06 h 9.059 v -1.7 z"
     id="path18"
     style="fill:#009ed0" />
</svg>
