<?xml version="1.0" encoding="UTF-8" standalone="no"?>
<svg
   viewBox="0 0 130.14369 31.297103"
   version="1.1"
   id="svg19"
   sodipodi:docname="logohr.svg"
   width="130.14368"
   height="31.297104"
   inkscape:version="1.3.2 (091e20ef0f, 2023-11-25)"
   xmlns:inkscape="http://www.inkscape.org/namespaces/inkscape"
   xmlns:sodipodi="http://sodipodi.sourceforge.net/DTD/sodipodi-0.dtd"
   xmlns="http://www.w3.org/2000/svg"
   xmlns:svg="http://www.w3.org/2000/svg">
  <defs
     id="defs19" />
  <sodipodi:namedview
     id="namedview19"
     pagecolor="#ffffff"
     bordercolor="#000000"
     borderopacity="0.25"
     inkscape:showpageshadow="2"
     inkscape:pageopacity="0.0"
     inkscape:pagecheckerboard="0"
     inkscape:deskcolor="#d1d1d1"
     inkscape:zoom="9.5999041"
     inkscape:cx="56.094311"
     inkscape:cy="2.8125281"
     inkscape:window-width="2560"
     inkscape:window-height="1492"
     inkscape:window-x="0"
     inkscape:window-y="0"
     inkscape:window-maximized="1"
     inkscape:current-layer="svg19" />
  <path
     d="M 16.233352,17.036932 H 8.4401729 V 9.2428925 h 1.5830701 v 0.9739325 h 5.600971 v 1.462619 h -5.600971 v 3.896589 h 6.210109 z m 0,2.800485 H 8.4401729 V 18.498691 H 16.233352 Z M 8.4401729,5.3463031 H 15.989869 V 6.8080619 H 10.023243 V 7.7819941 H 8.4401729 Z M 12.604336,0 C 5.638827,0 0,5.6388269 0,12.604335 c 0,6.965509 5.638827,12.604336 12.604336,12.604336 6.965508,0 12.604335,-5.638827 12.604335,-12.604336 C 25.208671,5.6388269 19.557799,0 12.604336,0"
     id="path19"
     style="fill:#009ed0;stroke-width:0.860364" />
  <g
     id="g20"
     transform="translate(-4.0913291,2.9719695)"
     style="stroke:#009ed0;stroke-width:0.4;stroke-dasharray:none;stroke-opacity:1">
    <g
       id="g22">
      <path
         d="m 39.753,27.955866 v -5.662 h -0.029 l -2.59,5.662 h -0.156 l -2.59,-5.662 h -0.029 v 5.662 h -0.183 v -5.876 h 0.326 l 2.547,5.605 2.548,-5.605 h 0.325 v 5.875 z"
         id="path1"
         style="fill:#009ed0;stroke:#009ed0;stroke-width:0.4;stroke-dasharray:none;stroke-opacity:1" />
    </g>
    <path
       d="m 51.897,22.209866 -1.67,3.906 h 3.283 z m 2.378,5.746 -0.693,-1.684 H 50.17 l -0.722,1.684 H 49.25 l 2.548,-5.874 h 0.226 l 2.45,5.874 z"
       id="path2"
       style="fill:#009ed0;stroke:#009ed0;stroke-width:0.4;stroke-dasharray:none;stroke-opacity:1" />
    <path
       d="m 67.679,27.969866 a 4.58,4.58 0 0 1 -1.232,0.155 c -0.467,0 -0.891,-0.085 -1.273,-0.24 a 2.783,2.783 0 0 1 -0.976,-0.666 2.871,2.871 0 0 1 -0.624,-0.99 3.526,3.526 0 0 1 -0.226,-1.231 c 0,-0.44 0.07,-0.85 0.226,-1.233 0.157,-0.381 0.354,-0.707 0.624,-0.976 0.268,-0.269 0.594,-0.48 0.962,-0.636 a 3.236,3.236 0 0 1 1.245,-0.228 c 0.397,0 0.765,0.057 1.09,0.185 0.326,0.128 0.623,0.282 0.877,0.496 l -0.127,0.127 a 2.64,2.64 0 0 0 -0.382,-0.284 2.302,2.302 0 0 0 -0.467,-0.197 3.052,3.052 0 0 0 -0.99,-0.17 2.902,2.902 0 0 0 -1.175,0.226 2.72,2.72 0 0 0 -0.906,0.623 2.876,2.876 0 0 0 -0.581,0.934 3.033,3.033 0 0 0 -0.198,1.133 c 0,0.395 0.07,0.777 0.199,1.146 0.127,0.353 0.325,0.68 0.58,0.934 a 2.664,2.664 0 0 0 0.92,0.636 3.1,3.1 0 0 0 1.23,0.228 c 0.397,0 0.751,-0.043 1.063,-0.128 a 4.75,4.75 0 0 0 0.85,-0.311 v -2.308 h -1.53 v -0.155 h 1.713 v 2.562 c -0.24,0.14 -0.538,0.255 -0.892,0.368"
       id="path3"
       style="fill:#009ed0;stroke:#009ed0;stroke-width:0.4;stroke-dasharray:none;stroke-opacity:1" />
    <path
       d="m 80.432,22.209866 -1.67,3.906 h 3.283 z m 2.378,5.746 -0.693,-1.684 h -3.412 l -0.721,1.684 h -0.199 l 2.548,-5.874 h 0.226 l 2.45,5.874 z"
       id="path4"
       style="fill:#009ed0;stroke:#009ed0;stroke-width:0.4;stroke-dasharray:none;stroke-opacity:1" />
    <path
       d="m 91.883,27.955866 v -0.226 l 3.863,-5.478 h -3.75 v -0.17 h 3.907 v 0.24 l -3.837,5.464 h 3.95 v 0.17 z"
       id="path5"
       style="fill:#009ed0;stroke:#009ed0;stroke-width:0.4;stroke-dasharray:none;stroke-opacity:1" />
    <path
       d="m 105.528,22.080866 h 0.184 v 5.875 h -0.184 z"
       id="path6"
       style="fill:#009ed0;stroke:#009ed0;stroke-width:0.4;stroke-dasharray:none;stroke-opacity:1" />
    <path
       d="m 120.177,27.955866 -4.203,-5.634 h -0.029 v 5.634 h -0.183 v -5.876 h 0.254 l 4.218,5.634 h 0.028 v -5.634 h 0.185 v 5.875 z"
       id="path7"
       style="fill:#009ed0;stroke:#009ed0;stroke-width:0.4;stroke-dasharray:none;stroke-opacity:1" />
    <path
       d="m 130.482,27.955866 v -5.876 h 3.425 v 0.17 h -3.242 v 2.576 h 3.044 v 0.17 h -3.044 v 2.79 h 3.37 v 0.169 z"
       id="path8"
       style="fill:#009ed0;stroke:#009ed0;stroke-width:0.4;stroke-dasharray:none;stroke-opacity:1" />
  </g>
  <g
     id="g21"
     transform="translate(-4.0913291,2.9719695)">
    <path
       d="m 34.232,16.433866 h 9.045 v 1.656 h -9.045 z"
       id="path11"
       style="fill:#009ed0" />
    <path
       d="m 36.072,4.049866 v -1.133 h 6.936 v -1.699 h -8.776 v 2.831 z"
       id="path9"
       style="fill:#009ed0" />
    <path
       d="m 36.072,8.577866 h 6.511 v -1.699 h -6.51 v -1.132 h -1.841 v 9.06 h 9.058 v -1.7 h -7.218 z"
       id="path10"
       style="fill:#009ed0" />
    <path
       d="m 53.61,1.556866 v 13.249 h -0.425 v -13.249 h -4.642 v -0.382 h 9.71 v 0.382 z"
       id="path12"
       style="fill:#009ed0" />
    <path
       d="m 74.091,14.805866 v -6.85 h -9.173 v 6.85 h -0.424 v -13.63 h 0.424 v 6.398 h 9.173 v -6.398 h 0.424 v 13.63 z"
       id="path13"
       style="fill:#009ed0" />
    <path
       d="m 99.399,7.133866 h 2.194 a 6.75,6.75 0 0 0 1.245,-0.113 c 0.383,-0.07 0.723,-0.198 1.005,-0.382 0.283,-0.17 0.525,-0.396 0.68,-0.68 0.17,-0.282 0.255,-0.622 0.255,-1.033 0,-0.41 -0.086,-0.75 -0.255,-1.033 a 1.994,1.994 0 0 0 -0.665,-0.665 2.846,2.846 0 0 0 -0.977,-0.353 6.265,6.265 0 0 0 -1.175,-0.1 h -2.335 v 4.36 z m 0,7.672 h -1.91 v -13.63 h 4.372 c 0.652,0 1.275,0.07 1.868,0.198 a 4.788,4.788 0 0 1 1.559,0.651 3.19,3.19 0 0 1 1.047,1.16 c 0.254,0.482 0.382,1.076 0.382,1.77 0,1.005 -0.311,1.811 -0.92,2.42 -0.623,0.623 -1.415,1.005 -2.392,1.175 l 3.808,6.256 h -2.308 l -3.468,-6.073 h -2.038 z"
       id="path14"
       style="fill:#009ed0" />
    <path
       d="m 115.082,14.805866 h -1.911 v -13.63 h 1.91 z"
       id="path15"
       style="fill:#009ed0" />
    <path
       d="m 124.834,9.780866 h 5.11 l -2.548,-6.398 z m -2.038,5.025 h -2.123 l 5.916,-13.63 h 1.727 l 5.86,13.63 h -2.152 l -1.387,-3.354 h -6.468 z"
       id="path16"
       style="fill:#009ed0" />
    <path
       d="m 83.914,4.189866 v -1.415 h 6.935 v -1.557 h -8.775 v 2.972 z"
       id="path17"
       style="fill:#009ed0" />
    <path
       d="m 83.914,13.107866 v -4.53 h 6.51 v -1.698 h -6.51 v -1.133 h -1.84 v 9.06 h 9.059 v -1.7 z"
       id="path18"
       style="fill:#009ed0" />
  </g>
</svg>
